<svg width="79" height="72" viewBox="0 0 79 72" fill="none" xmlns="http://www.w3.org/2000/svg">
<rect width="78.3419" height="71.9204" rx="10" fill="url(#paint0_linear_9_1238)"/>
<rect width="78.3419" height="71.9204" rx="10" fill="black" fill-opacity="0.2"/>
<path d="M61.1955 59H64.3419M51.7564 59H45.4637V50.1875M54.9028 50.1875H64.3419V41.375H61.1955M45.4637 41.375H51.7564M14 50.1866C14 47.4495 14 46.0806 14.479 45.001C15.1177 43.5614 16.3419 42.4184 17.8838 41.8221C19.0402 41.375 20.5063 41.375 23.4383 41.375C26.3704 41.375 27.838 41.375 28.9944 41.8221C30.5363 42.4184 31.7602 43.5614 32.3989 45.001C32.8779 46.0806 32.8779 47.45 32.8779 50.1875C32.8779 52.925 32.8779 54.2935 32.3989 55.3734C31.7602 56.8127 30.5363 57.9563 28.9944 58.5526C27.838 58.9997 26.3703 58.9997 23.4383 58.9997C20.5063 58.9997 19.0402 58.9997 17.8838 58.5526C16.3419 57.9563 15.1177 56.8136 14.479 55.374C14 54.2944 14 52.9241 14 50.1866ZM45.4637 20.8117C45.4637 18.0743 45.4637 16.7056 45.9426 15.626C46.5813 14.1864 47.8055 13.0435 49.3476 12.4472C50.5039 12 51.9701 12 54.9019 12C57.834 12 59.3017 12 60.458 12.4472C62.0001 13.0435 63.224 14.1864 63.8627 15.626C64.3416 16.7056 64.3416 18.0751 64.3416 20.8125C64.3416 23.5499 64.3416 24.9186 63.8627 25.9983C63.224 27.4378 62.0001 28.5812 60.458 29.1775C59.3017 29.6247 57.834 29.6247 54.9019 29.6247C51.9701 29.6247 50.5039 29.6247 49.3476 29.1775C47.8055 28.5812 46.5813 27.4386 45.9426 25.999C45.4637 24.9194 45.4637 23.5492 45.4637 20.8117ZM14 20.8117C14 18.0743 14 16.7056 14.479 15.626C15.1177 14.1864 16.3419 13.0435 17.8838 12.4472C19.0402 12 20.5063 12 23.4383 12C26.3704 12 27.838 12 28.9944 12.4472C30.5363 13.0435 31.7602 14.1864 32.3989 15.626C32.8779 16.7056 32.8779 18.0751 32.8779 20.8125C32.8779 23.5499 32.8779 24.9186 32.3989 25.9983C31.7602 27.4378 30.5363 28.5812 28.9944 29.1775C27.838 29.6247 26.3703 29.6247 23.4383 29.6247C20.5063 29.6247 19.0402 29.6247 17.8838 29.1775C16.3419 28.5812 15.1177 27.4386 14.479 25.999C14 24.9194 14 23.5492 14 20.8117Z" stroke="white" stroke-width="4" stroke-linecap="round" stroke-linejoin="round"/>
<defs>
<linearGradient id="paint0_linear_9_1238" x1="6.7684" y1="50.4985" x2="61.5613" y2="22.5366" gradientUnits="userSpaceOnUse">
<stop stop-color="#004EEC"/>
<stop offset="1" stop-color="#7CA8FF"/>
</linearGradient>
</defs>
</svg>
