<svg width="640" height="832" viewBox="0 0 640 832" fill="none" xmlns="http://www.w3.org/2000/svg">
<mask id="mask0_12_1679" style="mask-type:luminance" maskUnits="userSpaceOnUse" x="0" y="0" width="640" height="832">
<path d="M0 0H640V831.703H0V0Z" fill="white"/>
</mask>
<g mask="url(#mask0_12_1679)">
<mask id="mask1_12_1679" style="mask-type:luminance" maskUnits="userSpaceOnUse" x="-1" y="-1" width="641" height="835">
<path d="M640 -0.457031H-0.275635V833.012H640V-0.457031Z" fill="white"/>
</mask>
<g mask="url(#mask1_12_1679)">
<path d="M124.383 804.258C123.972 803.31 123.561 802.39 123.156 801.515L127.269 799.275C127.981 800.816 128.709 802.486 129.442 804.258H124.383Z" fill="#CACACA"/>
<path d="M157.734 804.258H152.795C148.999 793.87 144.828 783.77 140.643 776.345L144.563 773.738C149.149 781.88 153.678 793.013 157.734 804.258Z" fill="#CACACA"/>
<path d="M125.262 321.342L127.357 316.901L164.031 337.271L161.941 341.711L125.262 321.342Z" fill="#CACACA"/>
<mask id="mask2_12_1679" style="mask-type:luminance" maskUnits="userSpaceOnUse" x="0" y="0" width="640" height="832">
<path d="M0.03125 0H639.652V831.703H0.03125V0Z" fill="white"/>
</mask>
<g mask="url(#mask2_12_1679)">
<path d="M523.307 776.835C543.617 794.581 562.643 811.26 580.203 831.703H0.145508V0H580.203C583.978 5.20241 587.472 12.0412 589.022 17.8868C594.133 37.1222 597.404 56.8316 601.335 76.4958C604.215 90.8729 610.517 105.188 616.263 118.476C626.897 143.1 633.287 166.951 637.587 193.855C645.527 243.475 621.146 287.893 592.563 323.39C586.432 331.008 580.12 339.421 573.1 346.085C569.044 349.938 564.827 353.465 560.454 356.884C554.781 361.325 548.921 365.376 542.583 368.655C539.874 370.06 536.988 370.895 534.279 372.243C523.245 377.739 517.078 387.461 512.882 399.356C503.897 424.809 515.445 456.052 519.865 467.596C524.285 479.135 525.153 518.706 530.067 563.621C534.986 608.53 530.774 636.81 525.845 659.82C520.915 682.831 502.654 701.022 501.905 712.77C500.226 738.991 503.642 759.654 523.307 776.835Z" fill="#59B55A"/>
</g>
<mask id="mask3_12_1679" style="mask-type:luminance" maskUnits="userSpaceOnUse" x="0" y="0" width="595" height="832">
<path d="M0.03125 0H594.742V831.703H0.03125V0Z" fill="white"/>
</mask>
<g mask="url(#mask3_12_1679)">
<path d="M0.145508 518.024C4.23771 522.301 8.77188 527.734 15.0688 535.527C30.5276 554.666 50.9262 586.084 58.0343 598.063C65.1423 610.048 85.6293 625.164 102.32 614.494C119.012 603.83 141.807 608.897 162.7 584.521C183.592 560.145 180.426 533.157 172.465 507.258C165.123 483.384 160.87 457.197 159.83 436.23C157.776 394.644 179.901 357.635 180.956 340.905C182.012 324.18 182.584 297.751 166.303 276.749C159.538 268.026 154.807 260.493 151.427 253.778C147.657 246.923 146.388 250.009 136.015 251.149C125.647 252.294 119.864 244.637 103.636 251.945C87.4076 259.246 88.1824 255.612 69.0681 257.756C49.9435 259.901 54.9716 271.417 47.8168 284.378C40.6619 297.339 26.3574 295.257 13.0721 292.21C8.71468 291.211 4.4457 290.963 0.145508 291.211V250.827C0.660283 250.286 0.868272 249.603 0.649883 248.723C0.551088 248.345 0.384697 247.955 0.145508 247.555V209.513C21.9792 218.146 41.7851 233.764 47.8168 239.255C56.6199 247.273 80.2996 257.26 91.9886 249.439C103.683 241.619 118.512 237.646 127.154 239.255C134.21 240.569 142.639 241.585 145.52 238.893C144.537 235.508 143.846 232.309 143.305 229.216C141.126 216.775 133.914 197.534 111.992 181.926C90.0699 166.325 73.4515 140.155 68.1062 128.018C44.9673 75.4801 56.5419 51.3809 43.7038 0H56.2663C58.9078 10.7547 61.6637 24.1049 64.3259 41.4952C74.1587 105.707 90.9954 145.137 115.195 163.904C139.389 182.683 159.211 200.445 165.471 229.216C171.727 257.982 185.048 270.74 195.307 301.887C205.567 333.039 196.436 378.619 193.134 403.345C189.832 428.07 178.751 466.586 201.922 509.097C225.092 551.608 262.93 550.158 315.177 569.658C365.391 588.397 358.923 588.849 387.495 610.589C416.068 632.33 420.945 666.608 431.225 670.355C441.505 674.102 452.752 659.956 461.087 641.589C469.417 623.223 476.894 608.394 472.454 578.365C468.018 548.335 472.683 517.736 461.56 471.998C450.443 426.254 450.069 396.309 460.333 373.857C470.598 351.411 492.119 335.234 536.769 285.416C581.425 235.593 575.679 217.299 571.956 188.297C568.238 159.289 554.152 140.386 538.719 89.6654C530.93 64.0427 518.498 40.8124 505.639 30.3624C492.889 19.9971 482.38 14.5521 467.186 0H512.658C528.845 12.865 556.981 38.1266 566.819 97.9543C574.447 144.33 596.65 153.099 593.457 211.792C592.89 222.208 590.519 244.677 580.702 262.112C566.2 293.88 543.617 315.745 535.09 323.441C522.605 334.715 481.876 365.117 470.072 388.409C458.269 411.696 474.508 453.18 480.867 475.693C487.231 498.213 482.645 528.135 486.15 548.053C489.655 567.971 497.974 586.767 489.946 633.842C481.917 680.912 464.249 684.907 452.83 707.116C441.406 729.325 455.939 743.962 456.485 759.761C457.026 775.56 457.354 793.029 474.066 801.375C490.778 809.726 503.408 824.204 503.408 824.204C505.498 826.179 508.722 828.577 512.658 831.703H467.186C465.975 830.546 464.743 829.339 463.474 828.058C463.198 827.787 462.98 827.511 462.803 827.246C435.031 793.831 429.78 779.216 432.099 768.123C434.433 756.94 428.994 746.868 418.985 733.85C408.97 720.839 412.132 704.035 404.878 692.09C397.624 680.145 394.504 668.273 384.126 651.227C373.757 634.175 353.317 629.723 345.752 627.472C338.186 625.22 306.821 623.528 279.138 618.444C257.777 614.522 236.5 599.507 217.198 581.361C211.494 575.995 201.615 559.739 190.633 566.809C176.625 575.82 178.226 601.776 156.918 608.078C135.609 614.381 113.879 608.135 105.695 636.545C97.5107 664.949 112.881 678.672 97.1467 706.947C81.4175 735.227 64.4819 726.16 52.1637 744.695C45.0245 755.439 38.868 760.342 42.7054 783.967V783.962C45.2481 797.177 50.4894 808.191 56.2663 831.703H43.6882C43.501 830.941 43.319 830.185 43.1162 829.412C37.6773 808.49 30.2052 802.926 28.9521 779.719C25.1563 746.033 41.9462 727.74 57.2959 719.518C85.2289 704.566 94.4429 690.313 92.4773 669.486C90.5066 648.659 91.0682 643.457 92.4566 635.693C93.8397 627.923 81.7503 626.902 69.8377 618.472C57.9251 610.042 40.7919 586.767 31.9003 565.06C23.0088 543.353 7.20676 534.46 1.89782 527.588C1.38305 526.922 0.795477 526.313 0.145508 525.731V518.024ZM238.153 575.087C247.347 586.219 262.166 600.766 281.582 604.93C295.637 607.943 324.781 605.483 326.045 602.983C327.313 600.489 316.664 595.58 306.53 586.947C296.401 578.308 270.527 572.028 255.526 567.339C240.53 562.645 232.418 558.78 229.662 561.065C227.499 562.854 234.004 570.07 238.153 575.087Z" fill="white"/>
</g>
<mask id="mask4_12_1679" style="mask-type:luminance" maskUnits="userSpaceOnUse" x="0" y="260" width="140" height="146">
<path d="M0.03125 260.995H139.494V405.444H0.03125V260.995Z" fill="white"/>
</mask>
<g mask="url(#mask4_12_1679)">
<path d="M0.145508 299.562C0.566687 299.449 0.982666 299.325 1.39865 299.19C5.64164 297.83 6.53079 296.024 11.3562 297.469C14.4812 298.405 17.2319 300.476 20.3985 301.334C25.2811 302.66 33.6319 302.998 38.6132 302.395C44.3953 301.695 52.2885 294.58 55.9128 289.891C60.3221 284.18 59.979 274.323 66.5514 270.892C72.3387 267.874 81.1263 268.048 87.5896 266.452C94.0997 264.832 102.643 261.368 109.434 262.53C115.871 263.636 114.41 270.21 119.454 273.73C122.511 275.863 126.016 273.352 129.167 275.158C132.12 276.851 132.287 280.061 133.93 282.967C135.188 285.196 137.855 286.539 138.542 289.219C140.112 295.364 129.276 298.213 127.503 305.52C126.026 311.597 126.92 316.512 122.339 321.494C119.287 324.812 115.954 323.537 112.928 325.8C111.482 326.883 110.12 330.822 108.669 332.458C104.463 337.215 97.4223 339.319 92.3317 343.658C86.6328 348.522 82.0987 354.498 75.885 358.656C72.4375 360.958 68.6417 362.516 65.2515 364.891C49.0075 376.244 34.6302 389.82 19.3378 402.346C11.2054 409.01 6.61399 400.383 0.145508 395.62V299.562Z" fill="#6777E0"/>
</g>
<path d="M333.444 548.651C337.885 538.026 336.46 525.838 343.823 516.461C349.813 508.826 358.928 501.779 367.596 498.399C375.754 495.216 381.781 499.375 389.866 499.578C394.936 499.702 399.122 502.631 404.296 502.636C411.554 502.636 418.704 500.391 426.239 500.413C432.13 500.424 439.384 500.921 445.077 502.727C451.904 504.899 453.537 509.859 453.314 516.534C453.033 524.8 453.381 533.01 455.024 541.175C456.262 547.348 460.281 552.161 461.332 558.435C462.866 567.571 461.326 577.422 461.186 586.62C461.056 594.92 458.914 602.498 458.513 610.708C458.409 612.812 458.867 618.218 457.889 619.939C456.095 623.093 451.676 622.179 449.648 625.502C446.902 629.988 448.894 637.865 447.35 642.966C445.738 648.315 440.631 657.253 434.792 657.36C430.591 657.433 429.28 655.081 427.949 651.153C426.202 646.007 425.043 641.482 422.958 636.342C417.467 622.822 415.283 614.262 402.892 606.893C383.278 595.236 371.184 569.602 349.293 562.001C344.889 560.467 339.294 561.618 335.602 557.939C332.284 554.621 333.558 551.399 333.444 548.651Z" fill="#6777E0"/>
<mask id="mask5_12_1679" style="mask-type:luminance" maskUnits="userSpaceOnUse" x="150" y="746" width="155" height="86">
<path d="M150.143 746.343H304.554V831.703H150.143V746.343Z" fill="white"/>
</mask>
<g mask="url(#mask5_12_1679)">
<path d="M150.46 814.792C150.751 813.461 153.486 810.978 155.909 809.116C157.292 808.05 158.577 807.186 159.232 806.865C160.948 806.013 163.012 806.633 164.858 806.504C169.007 806.205 173.001 805.968 176.11 802.684C179.219 799.4 178.83 797.842 183.083 795.591C193.628 790.005 204.75 785.423 215.55 780.458C222.325 777.343 226.646 774.612 231.295 768.315C233.598 765.183 235.418 763.553 238.32 761.008C241.616 758.113 242.797 754.101 245.636 751.088C248.158 748.408 252.895 746.653 256.15 748.29C260.809 750.631 264.989 757.346 268.754 760.664C271.796 763.344 278.784 763.688 282.96 764.777C288.487 766.222 294.669 767.113 299.614 770.549C307.788 776.226 301.949 782.083 298.299 789.017C292.875 799.321 289.392 810.747 283.859 820.847C281.571 825.017 278.498 828.374 275.42 831.703H159.544C158.608 828.679 157.755 825.637 156.127 823.042C154.297 820.13 149.498 819.182 150.46 814.792Z" fill="#6777E0"/>
</g>
<mask id="mask6_12_1679" style="mask-type:luminance" maskUnits="userSpaceOnUse" x="159" y="0" width="118" height="27">
<path d="M159.46 0H276.6V26.9882H159.46V0Z" fill="white"/>
</mask>
<g mask="url(#mask6_12_1679)">
<path d="M267.371 9.99292C264.75 14.3546 263.835 22.7055 258.687 24.6014C251.054 27.4058 242.23 16.4931 235.985 13.7791C230.764 11.522 224.998 11.5841 219.575 11.7985C207.272 12.2951 202.135 22.3726 191.038 25.2842C184.643 26.96 182.698 23.8171 178.621 19.0887C174.664 14.5013 170.588 14.5859 166.225 11.3246C162.294 8.3848 160.838 4.20933 159.544 0H275.42C272.524 3.14289 269.617 6.25192 267.371 9.99292Z" fill="#6777E0"/>
</g>
<path d="M257.314 57.3902C258.812 53.3276 261.448 49.4963 266.066 49.7051C270.995 49.9251 271.073 54.71 275.248 56.7639C279.179 58.6936 283.823 58.8629 287.967 61.0183C291.342 62.7675 295.106 63.4898 298.429 65.1487C311.085 71.4852 293.541 94.2698 288.955 101.87C286.963 105.165 285.45 108.952 283.37 112.281C280.812 116.383 277.573 119.08 274.812 122.934C271.312 127.803 267.948 142.068 262.192 144.212C253.914 147.298 244.216 126.658 238.533 121.834C229.496 114.16 236.536 105.064 240.998 95.5167C243.759 89.6147 247.612 83.4022 249.681 77.2067C250.752 73.9961 250.742 70.3849 252.063 67.2477C253.378 64.1104 255.385 62.0509 257.314 57.3902Z" fill="#6777E0"/>
<path d="M248.116 255.889C251.829 248.429 259.347 243.577 264.074 237.088C272.81 245.975 276.288 259.449 280.703 272.134C283.521 280.236 288.097 285.828 292.615 292.842C300.041 304.381 306.286 316.76 313.149 328.841C317.881 337.164 324.365 343.071 330.849 349.718C337.957 356.997 342.892 366.161 350.218 372.898C354.794 377.107 358.46 381.469 363.181 385.605C367.471 389.363 368.246 390.768 365.152 395.66C361.788 400.969 358.715 407.125 355.304 412.412C352.579 416.639 355.2 425.198 350.801 421.954C348.585 420.318 341.243 417.908 339.288 415.854C335.212 411.572 327.641 404.648 322.738 401.59C317.449 398.295 313.841 389.848 309.01 385.774C299.105 377.429 295.938 362.493 288.315 352.336C284.592 347.377 283.219 341.317 280.562 335.505C277.963 329.828 274.364 325.28 271.094 320.219C267.256 314.266 265.748 307.083 262.904 300.527C259.249 292.097 253.898 284.53 250.591 276.157C248.277 270.311 242.698 263.342 245.943 256.329C246.873 254.326 247.222 249.535 248.116 255.889Z" fill="#6777E0"/>
<path d="M255.781 446.753L247.492 433.171L239.823 438.684L248.111 452.266L255.781 446.753Z" fill="#757575"/>
<path d="M373.685 191.744L347.873 174.732L343.1 183.264L368.911 200.276L373.685 191.744Z" fill="#757575"/>
<path d="M421.772 228.026L388.26 204.615L383.283 213.005L416.796 236.422L421.772 228.026Z" fill="#757575"/>
<path d="M383.242 451.002L374.465 448.017L364.824 481.398L373.596 484.383L383.242 451.002Z" fill="#757575"/>
<path d="M337.24 487.255L329.066 482.685L305.188 532.993L313.362 537.564L337.24 487.255Z" fill="#757575"/>
<path d="M256.238 629.193L227.728 618.641L224.759 628.087L253.269 638.638L256.238 629.193Z" fill="#757575"/>
<path d="M307.43 641.381L275.664 634.57L273.881 644.365L305.651 651.17L307.43 641.381Z" fill="#757575"/>
<path d="M344.005 657.298L323.991 646.487L319.888 655.419L339.907 666.236L344.005 657.298Z" fill="#757575"/>
<path d="M368.313 679.022L360.805 673.25L346.053 695.853L353.556 701.626L368.313 679.022Z" fill="#757575"/>
<path d="M390.012 720.376L378.994 691.797L370.508 695.656L381.531 724.23L390.012 720.376Z" fill="#757575"/>
<path d="M228.534 703.488L200.84 686.261L196.264 694.923L223.958 712.149L228.534 703.488Z" fill="#757575"/>
<path d="M191.798 711.009L184.445 705.017L179.032 712.837L186.385 718.83L191.798 711.009Z" fill="#757575"/>
<path d="M202.353 721.55L194.751 715.935L190.15 723.265L197.757 728.879L202.353 721.55Z" fill="#757575"/>
<path d="M216.164 730.606L208.634 724.873L202.572 734.262L210.101 739.995L216.164 730.606Z" fill="#757575"/>
<path d="M168.981 753.182L161.093 743.984L154.359 750.784L162.242 759.981L168.981 753.182Z" fill="#757575"/>
<path d="M192.541 767.249L187.186 759.14L172.881 770.256L178.237 778.376L192.541 767.249Z" fill="#757575"/>
<path d="M151.068 336.453L142.005 334.749L136.847 367.041L145.91 368.745L151.068 336.453Z" fill="#757575"/>
<path d="M140.331 402.758L131.179 401.782L128.049 436.156L137.2 437.138L140.331 402.758Z" fill="#757575"/>
<path d="M113.854 474.858L112.632 464.967L91.3802 468.059L92.6022 477.951L113.854 474.858Z" fill="#757575"/>
<path d="M115.918 499.211L114.191 489.41L94.474 493.496L96.2003 503.302L115.918 499.211Z" fill="#757575"/>
<path d="M159.185 543.787L151.843 522.825L143.248 526.375L150.59 547.331L159.185 543.787Z" fill="#757575"/>
<path d="M124.472 561.584L115.965 540.475L107.536 544.476L116.048 565.584L124.472 561.584Z" fill="#757575"/>
<path d="M98.7794 584.137L95.904 574.658L80.1539 580.289L83.0242 589.768L98.7794 584.137Z" fill="#757575"/>
<path d="M45.5914 621.214L36.9754 617.733L33.944 626.575L42.5599 630.056L45.5914 621.214Z" fill="#757575"/>
<path d="M37.0377 636.088L28.7597 631.743L24.7767 640.703L33.0547 645.043L37.0377 636.088Z" fill="#757575"/>
<mask id="mask7_12_1679" style="mask-type:luminance" maskUnits="userSpaceOnUse" x="0" y="762" width="7" height="20">
<path d="M0.03125 762.232H6.38014V781.011H0.03125V762.232Z" fill="white"/>
</mask>
<g mask="url(#mask7_12_1679)">
<path d="M0.145508 763.197H5.60004V779.86H0.145508V763.197Z" fill="#757575"/>
</g>
<mask id="mask8_12_1679" style="mask-type:luminance" maskUnits="userSpaceOnUse" x="0" y="789" width="15" height="23">
<path d="M0.03125 789.678H14.3669V811.345H0.03125V789.678Z" fill="white"/>
</mask>
<g mask="url(#mask8_12_1679)">
<path d="M13.4726 807.779L9.15162 790.936L0.29126 793.61L4.61225 810.453L13.4726 807.779Z" fill="#757575"/>
</g>
<path d="M26.087 706.749L9.86381 691.78L3.90491 699.38L20.1281 714.355L26.087 706.749Z" fill="#757575"/>
<path d="M68.9537 641.465L59.953 639.389L55.0704 664.329L64.0712 666.399L68.9537 641.465Z" fill="#757575"/>
<mask id="mask9_12_1679" style="mask-type:luminance" maskUnits="userSpaceOnUse" x="0" y="562" width="10" height="17">
<path d="M0.03125 562.893H9.0424V578.782H0.03125V562.893Z" fill="white"/>
</mask>
<g mask="url(#mask9_12_1679)">
<path d="M0.145508 565.489L3.13016 563.017L8.70949 570.956L0.145508 578.043V565.489Z" fill="#757575"/>
</g>
<mask id="mask10_12_1679" style="mask-type:luminance" maskUnits="userSpaceOnUse" x="0" y="596" width="18" height="31">
<path d="M0.03125 596.116H17.0292V626.451H0.03125V596.116Z" fill="white"/>
</mask>
<g mask="url(#mask10_12_1679)">
<path d="M0.145508 597.002L16.0203 620.402L8.61069 626.321L0.145508 613.84V597.002Z" fill="#757575"/>
</g>
<path d="M29.4567 600.026L22.749 593.193L17.3881 599.394L24.0905 606.228L29.4567 600.026Z" fill="#757575"/>
<mask id="mask11_12_1679" style="mask-type:luminance" maskUnits="userSpaceOnUse" x="0" y="727" width="12" height="14">
<path d="M0.03125 727.565H11.7047V740.565H0.03125V727.565Z" fill="white"/>
</mask>
<g mask="url(#mask11_12_1679)">
<path d="M11.3354 731.198L2.42823 728.721L0.265137 737.868L9.1775 740.345L11.3354 731.198Z" fill="#757575"/>
</g>
<path d="M106.194 783.691L91.5986 763.728L84.397 769.934L98.9875 789.892L106.194 783.691Z" fill="#757575"/>
<path d="M131.46 821.682L116.916 800.703L109.569 806.707L124.107 827.68L131.46 821.682Z" fill="#757575"/>
<path d="M94.7914 812.18L92.8207 802.43L77.8975 805.979L79.5302 826.856L88.6921 826.016L87.7406 813.856L94.7914 812.18Z" fill="#757575"/>
<path d="M81.038 509.453L76.1138 481.421L67.0767 483.283L72.0008 511.326L81.038 509.453Z" fill="#757575"/>
<path d="M87.7562 546.897L83.5028 538.049L66.3853 547.749L70.6386 556.596L87.7562 546.897Z" fill="#757575"/>
<path d="M51.7896 538.647L43.7404 523.677L35.7952 528.711L43.8496 543.68L51.7896 538.647Z" fill="#757575"/>
<mask id="mask12_12_1679" style="mask-type:luminance" maskUnits="userSpaceOnUse" x="0" y="471" width="11" height="19">
<path d="M0.03125 471.89H10.3735V489.224H0.03125V471.89Z" fill="white"/>
</mask>
<g mask="url(#mask12_12_1679)">
<path d="M0.145508 473.149L9.62984 480.557L4.25331 488.654L0.145508 485.444V473.149Z" fill="#757575"/>
</g>
<path d="M19.1871 460.464L9.0788 450.11L2.76111 457.366L12.8746 467.72L19.1871 460.464Z" fill="#757575"/>
<path d="M33.6892 437.014L28.1254 429.063L20.6378 435.236L26.2015 443.181L33.6892 437.014Z" fill="#757575"/>
<path d="M71.4705 394.717L65.5532 387.083L47.3385 403.717L53.2558 411.352L71.4705 394.717Z" fill="#757575"/>
<path d="M77.1279 455.222V425.763H67.9296V455.222H77.1279Z" fill="#757575"/>
<path d="M63.1092 468.939L60.9149 459.245L53.6196 461.187L55.8139 470.88L63.1092 468.939Z" fill="#757575"/>
<path d="M41.837 480.05L34.3858 474.198L27.179 485.009L34.6354 490.861L41.837 480.05Z" fill="#757575"/>
<path d="M101.213 416.475L92.0198 416.12L91.5103 431.62L100.698 431.975L101.213 416.475Z" fill="#757575"/>
<path d="M98.9096 389.617L98.4001 374.088L89.2069 374.45L89.7217 389.972L98.9096 389.617Z" fill="#757575"/>
<path d="M133.743 482.527V465.057H124.544V482.527H133.743Z" fill="#757575"/>
<path d="M141.147 495.42L126.073 495.143L125.917 505.119L140.991 505.396L141.147 495.42Z" fill="#757575"/>
<path d="M148.921 555.485L141.787 544.453L134.257 550.192L141.391 561.217L148.921 555.485Z" fill="#757575"/>
<path d="M145.083 638.373L137.668 632.471L132.047 640.788L139.457 646.69L145.083 638.373Z" fill="#757575"/>
<path d="M135.458 654.505L126.754 651.289L122.407 665.141L131.117 668.358L135.458 654.505Z" fill="#757575"/>
<path d="M163.142 668.166L148.692 659.849L144.381 668.662L158.837 676.979L163.142 668.166Z" fill="#757575"/>
<path d="M141.984 690.634L134.06 685.562L125.574 701.18L133.493 706.253L141.984 690.634Z" fill="#757575"/>
<path d="M118.882 733.833L111.228 728.304L101.868 743.55L109.517 749.085L118.882 733.833Z" fill="#757575"/>
<path d="M133.311 779.205L117.02 753.735L109.465 759.428L125.756 784.898L133.311 779.205Z" fill="#757575"/>
<path d="M153.46 784.216L148.973 775.504L137.549 782.433L142.036 791.15L153.46 784.216Z" fill="#757575"/>
<path d="M160.256 716.15L153.049 709.949L141.901 725.195L149.108 731.396L160.256 716.15Z" fill="#757575"/>
<path d="M196.462 658.319L188.376 653.557L180.733 668.831L188.813 673.594L196.462 658.319Z" fill="#757575"/>
<path d="M180.525 687.068L172.642 681.922L165.575 694.674L173.453 699.815L180.525 687.068Z" fill="#757575"/>
<path d="M208.895 606.284L195.36 600.602L192.037 609.907L205.577 615.594L208.895 606.284Z" fill="#757575"/>
<path d="M188.564 616.074L180.988 610.409L177.14 616.474L184.711 622.14L188.564 616.074Z" fill="#757575"/>
<path d="M230.089 657.106L214.042 650.443L210.756 659.764L226.797 666.428L230.089 657.106Z" fill="#757575"/>
<path d="M246.302 670.129L237.665 666.699L235.06 674.423L243.696 677.854L246.302 670.129Z" fill="#757575"/>
<path d="M243.894 691.814L234.862 689.929L233.635 696.858L242.667 698.743L243.894 691.814Z" fill="#757575"/>
<path d="M255.988 505.401L241.778 500.126L238.798 509.566L253.014 514.847L255.988 505.401Z" fill="#757575"/>
<path d="M288.69 519.874L267.844 512.15L264.87 521.595L285.716 529.32L288.69 519.874Z" fill="#757575"/>
<path d="M233.391 488.288L222.154 462.603L218.42 436.974L209.337 438.532L213.273 465.582L225.081 492.57L233.391 488.288Z" fill="#757575"/>
<path d="M281.129 675.072L271.614 671.433L268.556 680.839L278.072 684.484L281.129 675.072Z" fill="#757575"/>
<path d="M293.525 682.718L286.776 678.283L282.008 686.82L288.757 691.255L293.525 682.718Z" fill="#757575"/>
<path d="M270.714 694.398L261.999 691.221L253.976 717.154L262.691 720.331L270.714 694.398Z" fill="#757575"/>
<path d="M278.987 723.355L270.553 719.377L266.892 728.524L275.321 732.502L278.987 723.355Z" fill="#757575"/>
<path d="M310.768 727.717L298.148 723.022L295.164 732.462L307.783 737.157L310.768 727.717Z" fill="#757575"/>
<path d="M327.563 707.771L313.778 697.806L308.677 706.112L322.462 716.076L327.563 707.771Z" fill="#757575"/>
<path d="M371.314 754.299L353.187 732.953L346.423 739.719L364.549 761.064L371.314 754.299Z" fill="#757575"/>
<path d="M345.404 755.63L337.323 750.863L332.727 760.043L340.807 764.811L345.404 755.63Z" fill="#757575"/>
<path d="M359.126 768.67L351.705 762.774L346.095 771.091L353.515 776.987L359.126 768.67Z" fill="#757575"/>
<path d="M327.584 780.723L319.373 776.226L308.183 800.302L316.394 804.8L327.584 780.723Z" fill="#757575"/>
<path d="M352.08 796.381L335.571 786.174L331.021 794.852L347.525 805.053L352.08 796.381Z" fill="#757575"/>
<path d="M342.018 815.08L333.553 811.176L329.648 821.157L338.113 825.062L342.018 815.08Z" fill="#757575"/>
<path d="M381.916 815.678L367.336 809.584L364.029 818.895L378.609 824.994L381.916 815.678Z" fill="#757575"/>
<path d="M391.343 792.984L383.356 788.042L379.337 795.681L387.324 800.63L391.343 792.984Z" fill="#757575"/>
<path d="M396.278 749.407L391.858 737.761L383.351 741.564L387.776 753.21L396.278 749.407Z" fill="#757575"/>
<path d="M358.772 443.802L350.525 439.367L339.288 463.985L347.525 468.415L358.772 443.802Z" fill="#757575"/>
<path d="M391.255 417.919L371.839 406.99L367.606 415.849L387.022 426.778L391.255 417.919Z" fill="#757575"/>
<path d="M416.645 427.647L401.732 420.476L398.004 429.594L412.922 436.771L416.645 427.647Z" fill="#757575"/>
<path d="M414.071 457.818L401.555 455.042L399.715 464.82L412.236 467.596L414.071 457.818Z" fill="#757575"/>
<path d="M397.026 485.732L391.666 482.893L387.636 491.865L392.997 494.703L397.026 485.732Z" fill="#757575"/>
<path d="M447.828 441.556L435.926 435.462L431.995 444.485L443.902 450.584L447.828 441.556Z" fill="#757575"/>
<path d="M443.767 485.512L440.07 470.818L431.199 473.448L434.891 488.135L443.767 485.512Z" fill="#757575"/>
<path d="M427.523 367.571L418.714 364.705L413.858 382.259L422.666 385.131L427.523 367.571Z" fill="#757575"/>
<path d="M406.651 350.83L394.146 345.007L390.521 354.182L403.027 360.005L406.651 350.83Z" fill="#757575"/>
<path d="M444.344 389.735L435.478 387.078L429.899 408.976L438.765 411.639L444.344 389.735Z" fill="#757575"/>
<path d="M462.237 313.499L448.327 303.935L443.403 312.359L457.318 321.929L462.237 313.499Z" fill="#757575"/>
<path d="M423.711 295.968L415.366 291.775L399.527 328.926L407.873 333.118L423.711 295.968Z" fill="#757575"/>
<path d="M392.456 373.789L384.287 369.202L377.949 382.513L386.118 387.094L392.456 373.789Z" fill="#757575"/>
<path d="M445.535 248.604L437.538 243.667L423.836 269.758L431.833 274.701L445.535 248.604Z" fill="#757575"/>
<path d="M486.79 279.576L468.876 265.441L463.474 273.51L481.382 287.65L486.79 279.576Z" fill="#757575"/>
<path d="M463.76 288.091L455.794 283.103L451.837 290.545L459.803 295.533L463.76 288.091Z" fill="#757575"/>
<path d="M441.042 326.81L433.206 321.579L422.266 340.882L430.097 346.113L441.042 326.81Z" fill="#757575"/>
<path d="M468.523 339.156L460.994 333.417L447.713 353.933L455.237 359.672L468.523 339.156Z" fill="#757575"/>
<path d="M467.462 206.155L459.548 201.066L447.776 222.637L455.69 227.727L467.462 206.155Z" fill="#757575"/>
<path d="M490.637 248.339L468.804 231.835L463.547 240.022L485.38 256.526L490.637 248.339Z" fill="#757575"/>
<path d="M506.252 259.257L498.624 254.794L494.256 263.579L501.89 268.043L506.252 259.257Z" fill="#757575"/>
<path d="M518.217 243.571L510.427 238.267L506.086 245.777L513.875 251.081L518.217 243.571Z" fill="#757575"/>
<path d="M331.281 187.738L325.015 180.431L318.807 186.706L325.072 194.013L331.281 187.738Z" fill="#757575"/>
<path d="M363.379 211.493L355.626 206.127L350.769 214.394L358.527 219.76L363.379 211.493Z" fill="#757575"/>
<path d="M324.755 214.377L308.922 201.089L303.296 208.982L319.129 222.271L324.755 214.377Z" fill="#757575"/>
<path d="M295.085 225.617L288.009 219.246L276.065 234.853L283.142 241.23L295.085 225.617Z" fill="#757575"/>
<path d="M309.759 240.118L302.459 234.047L285.653 257.841L292.954 263.912L309.759 240.118Z" fill="#757575"/>
<path d="M329.206 274.351L320.887 270.108L315.094 283.469L323.414 287.718L329.206 274.351Z" fill="#757575"/>
<path d="M355.278 286.691L337.042 276.157L332.721 284.97L350.957 295.505L355.278 286.691Z" fill="#757575"/>
<path d="M336.371 323.148L326.445 312.573L320.003 319.7L329.934 330.274L336.371 323.148Z" fill="#757575"/>
<path d="M362.75 331.572L354.17 327.983L345.512 352.348L354.097 355.936L362.75 331.572Z" fill="#757575"/>
<path d="M375.77 345.661L367.253 341.886L359.006 363.785L367.523 367.56L375.77 345.661Z" fill="#757575"/>
<path d="M384.063 311.66L369.057 303.67L365.006 312.63L380.008 320.62L384.063 311.66Z" fill="#757575"/>
<path d="M395.025 269.639L384.792 261.322L379.28 269.307L389.508 277.624L395.025 269.639Z" fill="#757575"/>
<path d="M389.721 284.316L379.701 276.98L374.558 285.252L384.578 292.588L389.721 284.316Z" fill="#757575"/>
<path d="M370.991 253.158L363.067 248.091L354.498 263.89L362.422 268.957L370.991 253.158Z" fill="#757575"/>
<path d="M389.445 235.942L380.787 228.342L375.005 236.106L383.663 243.706L389.445 235.942Z" fill="#757575"/>
<path d="M408.71 249.089L400.916 244.124L396.257 252.735L404.056 257.694L408.71 249.089Z" fill="#757575"/>
<path d="M300.55 148.421L284.873 138.767L280.334 147.445L296.011 157.099L300.55 148.421Z" fill="#757575"/>
<path d="M304.175 169.05L296.801 163.08L292.205 169.778L299.573 175.742L304.175 169.05Z" fill="#757575"/>
<path d="M272.201 179.732L264.885 173.683L252.12 191.874L259.436 197.923L272.201 179.732Z" fill="#757575"/>
<path d="M286.807 198.493L279.939 191.857L265.348 209.626L272.217 216.267L286.807 198.493Z" fill="#757575"/>
<path d="M250.591 235.22L241.138 209.812L232.611 213.547L242.064 238.955L250.591 235.22Z" fill="#757575"/>
<path d="M243.426 165.766L224.941 147.01L218.66 154.301L237.15 173.056L243.426 165.766Z" fill="#757575"/>
<path d="M219.876 176.606L209.524 165.811L203.149 173.011L213.507 183.8L219.876 176.606Z" fill="#757575"/>
<path d="M226.995 189.747L223.162 185.165L216.351 191.874L220.183 196.456L226.995 189.747Z" fill="#757575"/>
<path d="M201.724 191.282L190.992 180.194L184.653 187.422L195.38 198.515L201.724 191.282Z" fill="#757575"/>
<path d="M228.139 237.438L219.424 220.047L211.344 224.815L220.058 242.206L228.139 237.438Z" fill="#757575"/>
<path d="M232.231 259.173L227.208 250.81L214.177 260.025L219.2 268.387L232.231 259.173Z" fill="#757575"/>
<path d="M236.412 292.802L231.893 284.107L219.414 291.741L223.932 300.437L236.412 292.802Z" fill="#757575"/>
<path d="M231.633 313.775L222.455 313.053L221.301 330.381L230.473 331.104L231.633 313.775Z" fill="#757575"/>
<path d="M256.176 312.98L249.416 295.793L240.956 299.709L247.716 316.896L256.176 312.98Z" fill="#757575"/>
<path d="M265.878 337.948L261.63 329.095L248.548 336.475L252.791 345.334L265.878 337.948Z" fill="#757575"/>
<path d="M276.663 359.694L271.166 351.693L258.141 362.228L263.637 370.229L276.663 359.694Z" fill="#757575"/>
<path d="M238.257 356.298L234.467 347.196L222.461 353.087L226.246 362.183L238.257 356.298Z" fill="#757575"/>
<path d="M222.788 383.438L213.657 382.287L210.813 408.903L219.949 410.048L222.788 383.438Z" fill="#757575"/>
<path d="M287.374 379.477L280.901 372.39L248.709 407.041L255.183 414.128L287.374 379.477Z" fill="#757575"/>
<path d="M286.589 417.181L279.642 410.641L264.568 429.493L271.515 436.038L286.589 417.181Z" fill="#757575"/>
<path d="M301.798 395.507L294.768 389.075L284.587 402.171L291.617 408.604L301.798 395.507Z" fill="#757575"/>
<path d="M298.309 436.06L290.458 430.858L279.091 451.058L286.943 456.26L298.309 436.06Z" fill="#757575"/>
<path d="M314.616 446.284L306.764 441.082L295.397 461.282L303.249 466.485L314.616 446.284Z" fill="#757575"/>
<path d="M279.148 466.694L271.297 461.491L259.93 481.691L267.782 486.894L279.148 466.694Z" fill="#757575"/>
<path d="M295.455 476.918L287.603 471.716L276.236 491.916L284.088 497.118L295.455 476.918Z" fill="#757575"/>
<path d="M319.046 406.787L311.194 401.59L299.833 421.79L307.679 426.993L319.046 406.787Z" fill="#757575"/>
<path d="M335.352 417.011L327.506 411.814L316.134 432.014L323.986 437.217L335.352 417.011Z" fill="#757575"/>
<path d="M244.627 385.633L239.537 377.322L232.538 382.366L237.628 390.683L244.627 385.633Z" fill="#757575"/>
<path d="M333.683 535.335L325.031 531.949L321.973 541.13L330.626 544.521L333.683 535.335Z" fill="#757575"/>
<path d="M126.156 367.684L116.979 366.996L116.043 381.683L125.22 382.372L126.156 367.684Z" fill="#757575"/>
<path d="M142.884 306.468L134.512 302.344L131.262 310.102L139.634 314.233L142.884 306.468Z" fill="#757575"/>
<path d="M106.647 232.771L104.738 223.004L88.1096 226.83L90.0179 236.591L106.647 232.771Z" fill="#757575"/>
<path d="M64.1285 803.011L62.917 793.644L53.8123 795.027L55.0134 804.393L64.1285 803.011Z" fill="#757575"/>
<path d="M69.6663 758.486L63.6814 750.908L55.3722 758.638L61.3571 766.216L69.6663 758.486Z" fill="#757575"/>
<path d="M155.675 439.209V431.8H146.477V439.209H155.675Z" fill="#757575"/>
<path d="M173.385 330.596L164.312 328.959L161.078 350.079L170.151 351.716L173.385 330.596Z" fill="#757575"/>
<path d="M162.242 493.343L159.398 477.781L150.377 479.717L153.216 495.279L162.242 493.343Z" fill="#757575"/>
<path d="M173.037 522.538L169.803 514.807L161.426 518.938L164.665 526.662L173.037 522.538Z" fill="#757575"/>
<path d="M251.943 532.723L236.651 522.002L231.659 530.387L246.952 541.107L251.943 532.723Z" fill="#757575"/>
<path d="M328.177 562.431L316.638 556.844L312.889 565.957L324.428 571.543L328.177 562.431Z" fill="#757575"/>
<path d="M218.545 589.024L209.492 579.73L203.175 586.981L212.222 596.269L218.545 589.024Z" fill="#757575"/>
<path d="M352.438 239.136L345.252 232.907L331.286 251.882L338.477 258.112L352.438 239.136Z" fill="#757575"/>
<path d="M374.678 119.864L362.043 113.116L357.982 122.071L370.617 128.819L374.678 119.864Z" fill="#757575"/>
<path d="M419.562 146.407L398.95 132.661L394.135 141.165L414.747 154.91L419.562 146.407Z" fill="#757575"/>
<path d="M391.395 156.095L382.904 152.252L377.787 165.574L386.279 169.417L391.395 156.095Z" fill="#757575"/>
<path d="M409.131 181.475L391.421 170.478L386.856 179.139L404.566 190.136L409.131 181.475Z" fill="#757575"/>
<path d="M436.971 204.722L423.197 194.272L417.929 202.454L431.698 212.904L436.971 204.722Z" fill="#757575"/>
<path d="M442.498 169.242L433.882 165.749L427.575 184.054L436.191 187.552L442.498 169.242Z" fill="#757575"/>
<path d="M486.706 168.655L479.713 163.396L474.471 171.595L481.465 176.859L486.706 168.655Z" fill="#757575"/>
<path d="M482.391 187.524L471.799 182.632L468.195 191.812L478.787 196.704L482.391 187.524Z" fill="#757575"/>
<path d="M516.579 188.68L506.2 182.795L501.941 191.648L512.32 197.522L516.579 188.68Z" fill="#757575"/>
<path d="M508.873 204.237L497.896 199.04L494.215 208.187L505.192 213.384L508.873 204.237Z" fill="#757575"/>
<path d="M543.144 209.925L534.58 206.274L529.396 220.606L537.955 224.251L543.144 209.925Z" fill="#757575"/>
<path d="M524.852 213.891L517 208.689L511.806 217.92L519.657 223.117L524.852 213.891Z" fill="#757575"/>
<path d="M537.165 258.247L530.187 251.747L521.69 262.485L528.668 268.979L537.165 258.247Z" fill="#757575"/>
<path d="M502.357 227.783L489.727 220.747L485.526 229.623L498.151 236.665L502.357 227.783Z" fill="#757575"/>
<path d="M504.599 144.144L496.57 136.414L490.466 143.879L498.489 151.609L504.599 144.144Z" fill="#757575"/>
<path d="M527.171 156.338L514.369 149.674L510.391 158.674L523.193 165.332L527.171 156.338Z" fill="#757575"/>
<path d="M464.784 111.423L455.321 104.771L450.319 113.144L459.787 119.797L464.784 111.423Z" fill="#757575"/>
<path d="M477.44 121.173L469.365 116.552L465.075 125.383L473.145 130.004L477.44 121.173Z" fill="#757575"/>
<path d="M455.778 133.09L448.821 126.754L442.909 134.405L449.866 140.736L455.778 133.09Z" fill="#757575"/>
<path d="M469.282 139.325L461.841 135.268L457.713 144.184L465.153 148.246L469.282 139.325Z" fill="#757575"/>
<path d="M439.108 96.0698L430.263 93.3275L419.973 132.374L428.812 135.116L439.108 96.0698Z" fill="#757575"/>
<path d="M417.014 118.916L398.779 107.919L394.312 116.648L412.548 127.645L417.014 118.916Z" fill="#757575"/>
<path d="M396.376 70.5033L388.156 66.0288L375.317 93.8239L383.538 98.2984L396.376 70.5033Z" fill="#757575"/>
<path d="M362.614 44.875L354.305 40.5923L339.845 73.6406L348.154 77.9233L362.614 44.875Z" fill="#757575"/>
<path d="M344.077 92.735L319.306 78.0023L314.881 86.7539L339.658 101.487L344.077 92.735Z" fill="#757575"/>
<path d="M313.321 105.504L305.23 100.764L299.708 111.852L307.804 116.592L313.321 105.504Z" fill="#757575"/>
<path d="M333.875 109.296L322.665 107.355L321.214 117.212L332.425 119.148L333.875 109.296Z" fill="#757575"/>
<path d="M314.532 47.0418L284.155 35.2263L281.056 44.6211L311.433 56.4366L314.532 47.0418Z" fill="#757575"/>
<path d="M321.396 27.9418L300.42 15.9627L296.141 24.7933L317.111 36.7724L321.396 27.9418Z" fill="#757575"/>
<mask id="mask13_12_1679" style="mask-type:luminance" maskUnits="userSpaceOnUse" x="309" y="0" width="28" height="13">
<path d="M309.879 0H336.501V12.5433H309.879V0Z" fill="white"/>
</mask>
<g mask="url(#mask13_12_1679)">
<path d="M331.078 11.522L310.102 0H330.464L335.227 2.62378L331.078 11.522Z" fill="#757575"/>
</g>
<mask id="mask14_12_1679" style="mask-type:luminance" maskUnits="userSpaceOnUse" x="349" y="0" width="20" height="20">
<path d="M349.813 0H368.449V19.7658H349.813V0Z" fill="white"/>
</mask>
<g mask="url(#mask14_12_1679)">
<path d="M350.073 14.2925L357.098 0H367.523L358.19 18.9871L350.073 14.2925Z" fill="#757575"/>
</g>
<path d="M382.659 8.72904L374.922 3.33478L365.339 19.5232L373.082 24.9174L382.659 8.72904Z" fill="#757575"/>
<mask id="mask15_12_1679" style="mask-type:luminance" maskUnits="userSpaceOnUse" x="399" y="0" width="39" height="32">
<path d="M399.065 0H437.668V31.3217H399.065V0Z" fill="white"/>
</mask>
<g mask="url(#mask15_12_1679)">
<path d="M437.402 21.4586L404.852 0.237L400.115 8.79107L432.665 30.0126L437.402 21.4586Z" fill="#757575"/>
</g>
<path d="M433.7 57.0799L404.576 41.3654L400.479 50.3032L429.603 66.0176L433.7 57.0799Z" fill="#757575"/>
<path d="M450.027 65.3349L441.702 61.0861L437.376 71.0677L445.696 75.3165L450.027 65.3349Z" fill="#757575"/>
<path d="M471.336 78.008L463.105 73.5504L456.683 87.5213L464.914 91.9733L471.336 78.008Z" fill="#757575"/>
<path d="M492.437 92.7632L485.115 86.7257L477.487 97.6214L484.809 103.659L492.437 92.7632Z" fill="#757575"/>
<path d="M491.532 58.7162L458.227 41.3315L454.239 50.3314L487.549 67.7104L491.532 58.7162Z" fill="#757575"/>
<path d="M522.028 99.1787L513.656 95.0427L505.077 115.525L513.448 119.661L522.028 99.1787Z" fill="#757575"/>
<path d="M529.838 123.667L521.524 116.964L516.038 124.971L524.352 131.68L529.838 123.667Z" fill="#757575"/>
<path d="M565.945 225.56L558.79 219.297L545.859 236.687L553.019 242.956L565.945 225.56Z" fill="#757575"/>
<path d="M39.778 134.873L36.7205 125.456L18.2979 132.504L21.3553 141.915L39.778 134.873Z" fill="#757575"/>
<mask id="mask16_12_1679" style="mask-type:luminance" maskUnits="userSpaceOnUse" x="0" y="102" width="12" height="14">
<path d="M0.03125 102.101H11.7047V115.102H0.03125V102.101Z" fill="white"/>
</mask>
<g mask="url(#mask16_12_1679)">
<path d="M0.145508 105.036L9.54664 102.829L11.4913 112.585L1.97062 114.82L0.145508 105.673V105.036Z" fill="#757575"/>
</g>
<path d="M30.9799 105.854L28.4789 96.2502L21.688 98.3323L24.1839 107.936L30.9799 105.854Z" fill="#757575"/>
<path d="M23.352 73.2061L22.52 63.2697L5.34009 64.9624L6.17725 74.8989L23.352 73.2061Z" fill="#757575"/>
<path d="M26.4199 31.6094L5.84456 31.1919L5.67297 41.1735L26.2484 41.5854L26.4199 31.6094Z" fill="#757575"/>
<path d="M66.6244 169.626L55.3514 154.476L48.1965 160.744L59.4696 175.895L66.6244 169.626Z" fill="#757575"/>
<path d="M95.072 199.232L83.8354 188.24L77.6737 195.655L88.9104 206.646L95.072 199.232Z" fill="#757575"/>
<path d="M29.4408 174.727L20.5233 165.851L14.3096 173.209L23.2219 182.079L29.4408 174.727Z" fill="#757575"/>
<mask id="mask17_12_1679" style="mask-type:luminance" maskUnits="userSpaceOnUse" x="0" y="0" width="18" height="12">
<path d="M0.03125 0H17.0292V11.0989H0.03125V0Z" fill="white"/>
</mask>
<g mask="url(#mask17_12_1679)">
<path d="M0.145508 0.208775L4.89287 0H15.8643L16.2127 9.50202L0.145508 10.196V0.208775Z" fill="#757575"/>
</g>
<mask id="mask18_12_1679" style="mask-type:luminance" maskUnits="userSpaceOnUse" x="106" y="0" width="11" height="13">
<path d="M106.215 0H116.864V12.5433H106.215V0Z" fill="white"/>
</mask>
<g mask="url(#mask18_12_1679)">
<path d="M107.156 11.3979V0H116.349V11.3979H107.156Z" fill="#757575"/>
</g>
<mask id="mask19_12_1679" style="mask-type:luminance" maskUnits="userSpaceOnUse" x="303" y="818" width="29" height="14">
<path d="M303.223 818.567H331.177V831.703H303.223V818.567Z" fill="white"/>
</mask>
<g mask="url(#mask19_12_1679)">
<path d="M308.183 819.464L330.464 831.703H310.102L304.034 828.368L308.183 819.464Z" fill="#757575"/>
</g>
<mask id="mask20_12_1679" style="mask-type:luminance" maskUnits="userSpaceOnUse" x="356" y="824" width="14" height="8">
<path d="M356.469 824.345H369.78V831.703H356.469V824.345Z" fill="white"/>
</mask>
<g mask="url(#mask20_12_1679)">
<path d="M368.615 829.48L367.523 831.703H357.098L360.498 824.78L368.615 829.48Z" fill="#757575"/>
</g>
<mask id="mask21_12_1679" style="mask-type:luminance" maskUnits="userSpaceOnUse" x="3" y="830" width="15" height="2">
<path d="M3.71777 830.123H17.0291V831.703H3.71777V830.123Z" fill="white"/>
</mask>
<g mask="url(#mask21_12_1679)">
<path d="M15.8643 831.703H4.89282L15.8487 831.229L15.8643 831.703Z" fill="#757575"/>
</g>
<mask id="mask22_12_1679" style="mask-type:luminance" maskUnits="userSpaceOnUse" x="106" y="824" width="11" height="8">
<path d="M106.215 824.345H116.864V831.703H106.215V824.345Z" fill="white"/>
</mask>
<g mask="url(#mask22_12_1679)">
<path d="M116.349 824.684V831.703H107.156V824.684H116.349Z" fill="#757575"/>
</g>
<path d="M111.753 37.0376V27.0616H94.0634V37.0376H111.753Z" fill="#757575"/>
<path d="M164.863 41.9804L149.461 28.2014L143.612 35.8978L159.013 49.6825L164.863 41.9804Z" fill="#757575"/>
<path d="M182.579 92.1764L174.925 86.6411L170.323 94.1287L177.982 99.6641L182.579 92.1764Z" fill="#757575"/>
<path d="M196.727 105.278L189.65 98.9079L183.645 106.757L190.722 113.133L196.727 105.278Z" fill="#757575"/>
<path d="M213.475 122.341L206.112 116.36L200.362 124.677L207.724 130.67L213.475 122.341Z" fill="#757575"/>
<path d="M166.714 120L157.5 109.917L150.969 116.947L160.183 127.03L166.714 120Z" fill="#757575"/>
<path d="M191.787 147.366L182.589 136.013L175.684 142.609L184.877 153.956L191.787 147.366Z" fill="#757575"/>
<path d="M134.772 127.927L130.477 119.102L122.189 123.853L126.484 132.684L134.772 127.927Z" fill="#757575"/>
<path d="M152.831 145.165L147.834 136.786L137.933 143.743L142.93 152.117L152.831 145.165Z" fill="#757575"/>
<path d="M174.966 163.82L168.971 156.253L158.925 165.631L164.925 173.197L174.966 163.82Z" fill="#757575"/>
<path d="M117.332 99.8559L108.461 80.6656L100.241 85.1402L109.111 104.33L117.332 99.8559Z" fill="#757575"/>
<path d="M141.126 90.794L128.387 65.0415L120.281 69.7643L133.02 95.5168L141.126 90.794Z" fill="#757575"/>
<path d="M212.446 78.8318L194.434 65.0076L189.125 73.161L207.137 86.9796L212.446 78.8318Z" fill="#757575"/>
<path d="M230.557 92.814L218.025 83.2499L212.737 91.409L225.269 100.979L230.557 92.814Z" fill="#757575"/>
<path d="M219.289 34.6846L211.479 29.4088L202.431 45.1853L210.241 50.4611L219.289 34.6846Z" fill="#757575"/>
<path d="M241.211 67.0163L219.429 50.5627L214.177 58.7556L235.959 75.2092L241.211 67.0163Z" fill="#757575"/>
<path d="M250.773 48.6329L243.156 43.0299L235.569 55.1726L243.187 60.7757L250.773 48.6329Z" fill="#757575"/>
<path d="M337.193 52.1257L329.113 47.3521L321.006 63.5236L329.087 68.2915L337.193 52.1257Z" fill="#757575"/>
<path d="M441.157 812.671L431.511 798.757L424.164 804.755L433.804 818.669L441.157 812.671Z" fill="#757575"/>
<mask id="mask23_12_1679" style="mask-type:luminance" maskUnits="userSpaceOnUse" x="0" y="0" width="614" height="832">
<path d="M0.03125 0H613.377V831.703H0.03125V0Z" fill="white"/>
</mask>
<g mask="url(#mask23_12_1679)">
<path d="M0.145508 819.854L21.61 818.979C21.3501 818.003 21.0901 817.01 20.8197 816C18.5422 807.423 15.9579 797.707 12.8225 782.596C10.883 773.23 10.2434 765.127 10.6334 757.967L10.5242 757.938C7.41995 757.03 3.89452 756.009 0.145508 754.914V749.751C5.50644 751.308 9.56224 752.493 11.0754 752.928C13.4776 734.37 23.274 722.441 34.937 710.496C21.3709 695.933 10.2382 686.6 1.01906 680.839C0.785077 681.544 0.493891 682.458 0.145508 683.542V674.604C11.377 680.957 23.9343 691.656 38.296 707.094C38.9824 706.411 39.6636 705.728 40.3499 705.04C47.6608 697.727 53.4897 690.809 58.0082 683.937C51.2954 678.119 42.5598 670.857 31.5572 662.269C20.4505 653.602 9.64024 641.928 0.145508 629.385V621.429C3.97772 626.778 7.95552 631.867 12.0217 636.607L37.6513 603.768L38.9928 604.998C32.6907 596.556 27.361 587.754 22.3744 579.302L6.28641 595.513L3.15616 591.856L19.8629 575.024C16.1087 568.637 12.4377 562.43 8.57429 556.669L0.145508 563.435V557.228L5.80803 552.686C3.98292 550.152 2.10581 547.732 0.145508 545.441V538.303C9.43225 547.974 16.6443 560.258 24.2515 573.213C36.3721 593.848 48.8879 615.154 71.5796 629.847C71.7252 628.651 71.8968 627.5 72.0944 626.388C71.6056 625.841 71.1584 625.277 70.7372 624.69C70.9504 623.612 71.1428 622.523 71.4652 621.468C72.0216 619.335 72.8535 617.293 73.8311 615.346C74.7982 613.394 75.9838 611.577 77.3149 609.901C77.6373 609.472 78.0013 609.083 78.3444 608.671C78.516 608.462 78.7032 608.276 78.8852 608.078C78.9736 607.971 79.088 607.904 79.14 607.762C79.2024 607.627 79.2284 607.458 79.4104 607.463C80.128 607.537 80.8403 607.627 81.5579 607.785C82.5302 606.905 83.591 606.047 84.7401 605.218C68.5377 593.301 55.6112 573.044 41.9774 551.67C29.4409 532.011 16.5819 511.862 0.145508 496.023V489.427C3.21336 492.209 6.15641 495.132 8.98507 498.168C11.6473 494.015 14.658 489.128 17.8194 483.999C24.8131 472.641 32.9611 459.415 41.5303 447.125C36.1589 428.144 27.9381 414.839 27.8289 414.664L27.6469 414.325C26.7526 412.249 8.24151 369.484 0.145508 349.199V332.548C10.2382 324.22 41.1559 323.181 44.9361 323.091L45.0453 328.074C30.3872 328.452 5.68323 331.403 1.78343 337.745C1.33625 338.473 1.27905 339.127 1.59104 340.002C6.3956 353.431 30.2104 408.502 31.7339 412.029C32.7583 413.688 39.7571 425.396 44.9621 442.29C54.5192 429.058 64.4715 417.417 73.8259 411.143C83.5182 404.643 97.4847 398.944 110.635 394.469C108.883 361.438 109.61 341.074 109.616 340.803L114.212 341.006C114.202 341.277 113.505 360.941 115.164 392.968C129.156 388.432 141.485 385.396 145.64 384.414C145.827 383.506 146.019 382.592 146.201 381.695C153.392 347.004 159.07 319.604 148.276 296.233C146.3 291.95 143.3 284.355 139.831 275.564C133.389 259.246 124.56 236.902 116.843 222.192C115.237 219.116 113.49 216.137 111.644 213.209C108.134 214.315 98.2907 217.401 88.5047 220.408C62.5476 228.387 62.5476 228.387 61.2893 226.773L64.7991 223.551C64.1959 222.773 63.364 222.654 63.0052 222.694C64.4143 222.524 74.6838 219.466 86.482 215.844C73.2227 206.46 33.2991 177.621 18.7398 160.592C11.3302 164.023 4.90847 167.239 0.145508 169.71V164.186C4.3937 162.014 9.67664 159.39 15.6407 156.608C11.1222 150.39 5.51684 142.011 0.145508 132.972V123.554C0.239104 123.724 0.327499 123.893 0.426295 124.057L38.2336 111.056L39.622 115.813L2.92737 128.435C8.83428 138.541 15.1676 147.981 20.0293 154.588C29.6021 150.249 40.5475 145.696 51.597 141.96C43.6726 128.311 35.509 108.562 32.9975 82.6405L35.2854 82.3809L32.9871 82.4373C32.6283 75.3278 32.2487 67.8458 31.8327 60.5161L6.84798 61.6559L6.65559 56.6679L31.5364 55.5394C30.9904 46.6694 30.3664 38.2451 29.6177 31.2709C29.2849 28.1788 28.9521 25.3293 28.6141 22.6604L0.145508 23.4447V18.4511L27.9433 17.6893C26.945 10.7152 25.8998 5.14034 24.7611 0H29.4773C31.1984 7.95597 32.7375 17.2097 34.183 30.6954C35.7014 44.7904 36.6945 64.6465 37.5785 82.1609C42.5858 133.756 71.616 160.705 71.9488 161.01C76.5297 165.36 81.0535 169.71 85.4525 174.128C85.5045 174.179 85.5617 174.23 85.6137 174.281V174.292C95.9196 184.652 105.508 195.378 113.438 207.284L120.79 204.299C121.3 203.458 121.83 202.663 122.36 201.884L127.222 199.909L146.664 192.004C148.276 191.327 149.919 190.729 151.51 189.984C152.404 190.187 153.314 190.418 154.24 190.701L161.031 187.941C156.283 182.745 151.016 177.452 144.99 171.516C113.656 140.617 99.1018 108.212 86.8876 69.0646L89.0455 68.2746L86.8772 69.0476C86.7992 68.7768 78.6772 41.8055 74.0079 8.83056C73.5919 5.91901 73.1759 2.97361 72.7755 0H77.4241C77.7933 2.71406 78.1729 5.41119 78.5524 8.07446C79.1036 11.9622 79.7016 15.7709 80.3307 19.4611C88.9519 16.9219 110.073 12.2669 132.281 19.2467L131.002 24.0428C109.808 17.379 89.1183 22.0736 81.2043 24.3983C85.6761 48.8812 91.0942 66.9768 91.2398 67.4621C97.1779 86.4887 103.256 102.282 110.198 116.112L129.526 107.733C114.321 87.4987 108.664 66.153 104.312 49.6994L103.485 46.596L107.905 45.2023L108.727 48.317C113.048 64.6465 118.684 85.9188 134.023 105.786L158.784 95.0653C160.199 92.9268 165.295 85.2473 172.122 75.198C165.586 70.289 160.027 65.7185 156.065 61.2158L159.393 57.7739C163.069 61.955 168.565 66.4521 174.857 71.1805C187.31 52.9326 204.163 28.8615 215.54 14.9809L216.736 13.5251L218.322 14.4223C218.566 14.5634 237.415 25.2108 264.771 39.8419C265.098 39.3454 265.416 38.8657 265.728 38.4143L272.888 27.3381L272.94 27.2647C278.774 18.863 283.755 10.055 288.544 0H293.707C288.482 11.2456 283.079 20.962 276.631 30.2383L269.451 41.3315C269.289 41.5742 269.123 41.8224 268.957 42.0763C275.992 45.823 283.521 49.801 291.394 53.9031C296.822 56.73 303.857 60.8265 311.974 65.8032C315.286 59.6302 325.103 42.1835 331.322 31.1637C332.44 29.1324 333.626 26.6497 334.874 23.8566C320.58 16.7188 306.369 9.57537 301.013 6.75975L303.02 2.2683C308.355 5.07263 322.55 12.2104 336.829 19.3426C338.472 15.4718 340.188 11.2117 341.951 6.84439C342.871 4.57045 343.791 2.27958 344.722 0H349.755C348.549 2.92847 347.353 5.89644 346.168 8.84749C344.395 13.2374 342.668 17.5088 341.009 21.4303C357.695 29.7587 373.305 37.5059 373.601 37.6526L371.693 42.1948C371.392 42.0425 355.761 34.2896 339.049 25.9443C337.734 28.901 336.46 31.5474 335.259 33.7423C328.592 45.5578 318.926 62.7731 315.957 68.269C335.831 80.6148 361.268 97.5085 385.597 114.019L407.608 64.8214L411.742 66.9994L389.518 116.682C403.848 126.432 417.664 135.951 429.582 144.217C431.599 138.372 433.024 133.666 433.43 131.07C435.442 118.2 451.946 76.7835 459.272 60.4823L407.79 28.0659L394.244 53.0059L390.287 50.4724L403.807 25.5607L385.4 13.9709L387.703 9.65437L440.501 42.8945L452.32 21.1031C446.029 18.5696 440.247 15.6749 434.412 10.3653C431.209 7.44814 428.084 3.83128 425.178 0H431.241C433.232 2.415 435.291 4.64944 437.366 6.53969C444.323 12.8763 451.462 15.5565 459.725 18.6598C466.843 21.3344 474.913 24.3644 484.538 30.2665C505.737 43.2556 515.586 55.3758 520.822 74.9497C527.207 92.1707 546.456 144.155 551.225 191.846C551.339 192.991 551.427 194.103 551.505 195.203C553.029 195.711 555.8 196.591 559.565 197.658C560.496 197.325 561.411 197.037 562.316 196.761C564.156 197.353 566.049 197.754 567.931 198.222C571.706 199.108 575.523 199.875 579.345 200.581C583.172 201.292 587.025 201.89 590.878 202.465L596.67 203.261C597.492 203.921 598.314 204.587 599.135 205.315C601.153 205.518 610.85 207.149 612.914 207.29L612.94 211.679C610.616 211.527 600.638 210.483 598.366 210.252C597.502 210.703 596.639 211.121 595.771 211.516L589.864 210.709C585.928 210.122 581.992 209.513 578.071 208.779C574.145 208.057 570.225 207.267 566.309 206.347L563.382 205.636L561.915 205.258C561.666 205.208 561.427 205.106 561.172 205.1C560.917 205.089 560.652 205.106 560.439 204.914C559.643 204.124 558.863 203.3 558.114 202.403C555.468 201.647 553.305 200.987 551.724 200.479C551.729 200.897 551.739 201.314 551.739 201.726C551.739 229.109 538.818 242.087 525.226 255.742C520.369 260.617 515.352 265.656 510.791 271.502C507.401 275.846 502.513 281.353 496.856 287.724C489.982 295.465 481.896 304.572 473.697 314.712C481.813 320.592 487.226 324.491 487.419 324.632L484.876 328.79C484.678 328.643 479.052 324.592 470.665 318.515C460.458 331.425 450.292 345.87 442.259 361.212C442.399 361.28 442.488 361.331 442.508 361.336L449.388 365.376C450.318 365.218 451.223 365.111 452.118 365.026C453.547 365.969 455.045 366.776 456.506 367.656L465.33 372.836L474.149 378.01L478.558 380.6C478.964 381.441 479.364 382.293 479.744 383.184L494.09 391.682C495.109 393.064 495.171 392.139 496.726 392.878C496.846 392.934 494.787 394.283 494.906 394.334C494.906 394.334 495.962 393.6 495.962 393.606C495.187 394.717 495.385 395.338 495.192 396.41C494.111 395.208 492.644 395.445 491.074 395.372L477.56 387.574C476.66 387.721 475.787 387.822 474.913 387.918L461.685 380.148L452.861 374.974C451.384 374.128 449.944 373.208 448.431 372.424C448.005 371.572 447.594 370.692 447.204 369.766L440.501 365.828C440.397 365.777 440.241 365.698 440.033 365.591C431.849 382.259 426.363 399.886 426.186 417.694C426.077 428.849 426.493 440.913 427.232 453.293C436.451 456.402 445.493 459.195 454.099 461.683L452.918 466.502C444.786 464.154 436.264 461.531 427.564 458.625C429.124 482.171 431.724 506.53 433.981 527.667C434.215 529.85 434.438 531.983 434.662 534.077L459.6 531.159L460.094 536.119L435.187 539.036C437.782 563.711 439.363 581.316 437.719 587.624C435.073 597.775 428.604 609.641 420.124 613.27C415.73 615.154 411.149 614.669 406.885 611.87C399.231 606.854 392.56 600.173 386.117 593.679L383.725 598.898C383.777 600.134 383.793 601.353 383.783 602.554C382.706 604.687 381.755 606.888 380.741 609.049L374.725 622.083L368.708 635.112L365.698 641.623C364.876 642.289 364.039 642.949 363.176 643.593L358.423 653.337C363.405 656.982 368.157 661.113 372.567 665.813C394.998 689.737 399.33 717.859 403.152 742.675C405.819 759.987 408.341 776.339 416.65 788.91L412.911 791.816C403.984 778.308 401.378 761.397 398.617 743.499C394.728 718.26 390.709 692.158 369.343 669.368C365.271 665.029 360.867 661.197 356.255 657.783L335.909 699.499L331.848 697.168L352.392 655.047C326.149 637.425 294.009 632.646 273.241 629.56C264.62 628.279 257.808 627.269 253.623 625.723C246.769 623.2 234.753 616.57 222.965 609.636C216.886 627.506 207.329 655.154 202.748 665.948C199.914 672.635 194.543 682.509 188.277 692.852C189.676 693.743 191.87 695.171 195.411 697.484C211.484 707.974 244.934 729.81 264.625 738.579C268.291 740.21 272.108 741.767 275.971 743.279C284.161 726.899 299.438 675.902 299.599 675.366L303.972 676.906C303.623 678.08 299.261 692.643 293.983 708.572L323.029 725.545L320.85 729.94L292.397 713.312C288.279 725.505 283.817 737.8 280.349 744.972C283.885 746.309 287.442 747.624 290.952 748.916C301.195 752.685 311.137 756.353 319.587 760.432C332.232 737.309 347.078 715.631 347.962 714.344L351.648 717.323C351.435 717.639 336.48 739.47 323.788 762.577C329.549 765.669 334.406 769.037 337.884 772.885C342.881 778.409 353.655 786.055 364.741 793.221C373.461 780.305 383.413 767.294 384.006 766.526L387.542 769.72C387.396 769.906 377.439 782.918 368.729 795.772C383.725 805.262 398.108 813.303 398.368 813.45L396.267 817.89C395.186 817.286 380.902 809.302 366.01 799.845C363.327 803.931 360.893 807.863 359.084 811.198C356.037 816.807 352.886 824.097 349.755 831.703H344.722C348.175 823.234 351.69 814.99 355.122 808.665C356.957 805.279 359.375 801.358 362.032 797.295C350.806 790.01 339.871 782.196 334.603 776.384C331.452 772.897 326.913 769.782 321.458 766.882C316.919 775.413 312.822 783.945 310.024 791.466C304.164 807.232 299.027 820.26 293.707 831.703H288.544C294.181 819.865 299.552 806.295 305.76 789.604C308.62 781.913 312.718 773.32 317.252 764.76C309.114 760.872 299.438 757.306 289.475 753.639C280.578 750.366 271.38 746.981 262.883 743.194C242.864 734.279 209.212 712.319 193.04 701.756C190.066 699.815 187.367 698.054 185.724 697.01C180.197 705.897 174.171 714.858 168.654 722.216C175.034 729.81 201.433 761.414 206.071 769.348C208.806 771.751 230.354 790.298 252.811 800.24L251.08 804.862C226.511 793.988 203.804 773.794 202.852 772.942L202.54 772.665L202.338 772.287C199.197 766.515 177.93 740.672 165.679 726.086C163.246 729.167 160.953 731.853 158.909 733.958C149.139 744.046 146.414 748.611 145.723 750.016C158.483 770.2 171.207 790.53 171.415 790.868L167.608 793.672C167.26 793.108 132.219 737.112 120.124 718.734C119.147 717.25 118.268 715.755 117.478 714.243C110.281 726.594 101.863 738.607 91.7702 749.429C78.6044 763.553 74.8086 781.372 74.7982 799.919L119.797 789.83L120.728 794.716L74.8866 804.997L74.8814 804.974C75.183 813.89 76.2333 822.906 77.4241 831.703H72.7807C70.6384 815.797 68.9953 799.191 71.2624 783.567C66.775 781.541 54.6908 776.062 44.1301 771.164C43.3866 771.458 42.6534 771.723 41.9202 772L30.9072 767.034L23.5599 763.728C22.3328 763.197 21.1265 762.588 19.8733 762.114C19.6185 761.595 19.369 761.059 19.1298 760.5L15.1676 759.321C14.918 765.787 15.5627 773.083 17.3099 781.502C20.4141 796.466 22.9724 806.109 25.2395 814.618C26.7786 820.412 28.1773 825.688 29.4773 831.703H24.7611C24.1683 829.034 23.5444 826.484 22.8944 823.922L0.145508 824.847V819.854ZM68.9589 164.801C68.3765 164.271 61.7209 158.109 54.228 146.299C43.4646 149.877 32.7375 154.278 23.274 158.527C30.0024 166.009 41.4991 175.753 53.2505 185.019C56.1779 183.822 61.4973 181.667 66.8218 179.568C72.7703 177.226 76.7013 175.731 79.348 174.828C75.9422 171.465 72.4687 168.13 68.9589 164.801ZM83.2946 178.772C79.9148 179.686 67.9346 184.375 57.7327 188.523C73.4775 200.722 88.6399 211.426 92.3629 214.032C98.0307 212.283 103.761 210.495 108.815 208.903C101.473 198.137 92.7113 188.297 83.2946 178.772ZM40.8283 607.413L15.2092 640.241C21.4801 647.181 27.9017 653.264 34.2402 658.218C45.1909 666.766 53.8797 673.972 60.5873 679.767C67.2794 668.279 70.394 656.74 70.7008 643.564C70.7736 640.602 70.888 637.854 71.0648 635.298C58.5854 627.573 48.9087 617.829 40.8283 607.413ZM65.0071 577.558L90.8446 561.42L93.1377 565.743L67.9814 581.457C74.611 589.938 81.5371 597.188 89.1599 602.385C90.7822 601.454 92.5449 600.546 94.4636 599.637C100.584 596.754 106.501 595.039 112.226 593.385C122.849 590.31 132.937 587.393 144.168 577.411C140.804 573.659 127.31 557.922 122.573 541.688C120.816 535.674 119.838 528.073 119.126 518.701C81.5007 526.544 63.8788 546.377 56.2143 555.005C54.4932 556.946 53.3129 558.272 52.2833 559C56.4951 565.5 60.7017 571.763 65.0071 577.558ZM123.671 517.826C124.362 527.069 125.293 534.483 126.957 540.182C131.423 555.496 144.875 571.035 147.641 574.122C163.345 558.385 164.931 543.613 153.392 515.422C142.374 515.389 132.505 516.28 123.671 517.826ZM151.292 510.434C145.073 495.899 141.225 476.489 139.967 455.578C133.134 456.323 126.562 457.254 120.249 458.376C121.284 472.641 121.892 484.992 122.412 495.634C122.724 501.892 123.005 507.619 123.327 512.827C131.725 511.382 141.017 510.513 151.292 510.434ZM118.772 513.679C118.429 508.296 118.138 502.377 117.821 495.894C117.306 485.41 116.703 473.239 115.699 459.223C90.647 464.149 69.8845 472.15 53.7705 483.142C53.5313 483.305 53.3233 483.446 53.1205 483.582C58.3098 504.843 67.9086 526.866 71.2728 534.263C82.0103 526.256 97.2819 518.069 118.772 513.679ZM43.0902 453.18C35.3738 464.476 28.0213 476.416 21.6412 486.77C18.277 492.237 15.0688 497.434 12.2713 501.79C24.8807 516.105 35.4258 532.627 45.7577 548.832C47.354 551.332 49.9226 554.723 49.7979 554.802C50.2606 554.52 51.6646 552.94 52.9021 551.546C55.9959 548.059 60.6601 542.817 67.4874 537.225C64.5495 530.866 55.3772 510.237 49.7199 489.015L36.6789 514.965L32.6439 512.579L47.9935 482.024C46.886 477.081 46.0228 472.195 45.5341 467.529C45.0089 462.546 44.1509 457.745 43.0902 453.18ZM113.656 434.83C112.429 422.067 111.55 410.268 110.926 399.643C98.3531 403.96 85.2289 409.354 76.2437 415.386C66.7698 421.74 56.4847 434.142 46.6156 448.101C48.1495 453.953 49.4027 460.295 50.1046 466.964C50.4894 470.666 51.1342 474.542 51.9609 478.492C68.5741 467.326 89.8151 459.2 115.325 454.229C114.862 448.107 114.311 441.652 113.656 434.83ZM115.445 398.126C116.074 408.993 116.963 421.136 118.232 434.317C118.876 441.014 119.412 447.362 119.88 453.388C126.239 452.266 132.859 451.329 139.717 450.584C138.927 430.875 140.393 410.082 144.293 390.976C144.376 390.576 144.454 390.192 144.532 389.803C139.067 391.151 127.81 394.074 115.445 398.126ZM155.852 195.373C155.327 196.247 154.781 197.065 154.229 197.861C152.576 198.436 150.98 199.153 149.352 199.791L129.91 207.696L125.049 209.671C124.175 209.456 123.296 209.236 122.402 208.971L116.152 211.51C117.805 214.185 119.37 216.916 120.842 219.726C128.688 234.678 137.206 256.255 144.059 273.601C147.501 282.318 150.47 289.845 152.389 293.998C163.917 318.961 158.083 347.128 150.694 382.789C150.064 385.814 149.425 388.9 148.78 392.049C145.021 410.488 143.57 430.485 144.256 449.473C159.268 444.789 187.232 435.908 203.097 430.305C203.481 411.707 206.269 394.768 209.004 378.236C214.209 346.762 219.117 317.042 207.043 279.446C200.59 259.359 195.047 244.192 189.593 231.947L176.724 240.191L174.389 235.892L187.539 227.473C180.488 212.543 173.406 202.098 164.515 191.852L155.852 195.373ZM220.505 206.144C226.106 201.861 241.913 189.459 249.53 180.459C252.281 177.204 255.874 170.438 259.555 162.533C250.17 155.745 241.2 146.362 230.707 127.865C229.995 126.607 229.22 125.366 228.404 124.136C223.849 133.807 220.032 141.594 217.469 145.888C213.444 152.613 204.319 161.286 194.871 169.231C204.36 180.64 213.241 192.963 220.505 206.144ZM191.205 172.272C181.877 179.878 172.845 186.452 168.7 189.403C177.228 199.396 184.32 209.964 191.444 224.973L216.642 208.847C209.472 195.818 200.648 183.597 191.205 172.272ZM218.94 213.163L193.508 229.442C199.124 241.957 204.849 257.446 211.385 277.799C219.564 303.269 220.225 325.083 218.207 346.152L265.728 315.22C249.692 282.787 234.072 247.989 224.197 224.42C222.596 220.606 220.838 216.854 218.94 213.163ZM217.536 352.404C216.47 361.319 215.009 370.15 213.527 379.116C210.917 394.904 208.25 411.064 207.735 428.635C210.974 427.433 213.304 426.485 214.313 425.909C217.926 423.861 237.618 403.954 255.635 385.328C250.066 375.375 241.263 346.863 238.767 338.591L217.536 352.404ZM242.812 335.956C246.135 347.089 254.179 372.441 259.041 381.802C271.099 369.292 281.852 357.945 285.726 353.753C279.944 343.263 273.917 331.645 267.911 319.615L242.812 335.956ZM242.058 406.082C243.436 409.941 247.892 421.023 257.543 433.989C260.528 438.001 264.199 442.419 268.624 446.984C283.058 426.97 297.742 406.589 309.119 390.807C307.398 388.719 305.776 386.604 304.273 384.442C299.391 377.412 293.926 368.401 288.159 358.137C281.358 365.405 259.883 388.031 242.058 406.082ZM253.815 436.918C245.033 425.08 240.446 414.89 238.45 409.727C227.806 420.425 219.039 428.86 216.45 430.327C215.113 431.089 211.947 432.359 207.641 433.922C207.62 440.422 207.912 447.125 208.619 454.077C211.203 479.35 217.687 494.833 226.652 505.114C236.515 491.487 250.877 471.591 265.774 450.934C260.97 446.008 257.013 441.234 253.815 436.918ZM132.682 111.745L112.47 120.496C122.059 138.541 133.342 153.291 148.083 167.826C154.614 174.264 160.318 179.98 165.477 185.724C169.09 183.156 178.424 176.402 188.069 168.565C173.63 151.756 158.036 136.995 144.886 124.542L142.566 122.347C138.911 118.882 135.64 115.339 132.682 111.745ZM162.133 98.5637L161.738 99.1562L137.237 109.77C139.774 112.755 142.546 115.706 145.588 118.589L147.912 120.784C161.254 133.418 177.077 148.404 191.751 165.529C200.98 157.799 209.862 149.437 213.611 143.168C216.252 138.75 220.36 130.286 225.284 119.791C214.515 105.899 197.939 93.9368 183.036 83.1765C180.577 81.4104 178.206 79.6951 175.918 78.0192C167.915 89.7952 162.273 98.3436 162.133 98.5637ZM217.796 19.7489C206.586 33.652 190.617 56.4761 178.653 73.9961C180.909 75.6494 183.228 77.3309 185.579 79.0236C200.185 89.5639 216.361 101.238 227.53 114.983C229.111 111.598 230.754 108.049 232.449 104.392C242.61 82.4768 253.94 58.0334 262.197 44.0287C239.588 31.9311 222.866 22.5927 217.796 19.7489ZM547.08 198.566L505.155 174.095L487.133 210.41C503.772 221.655 522.595 234.786 531.112 242.696C540.784 231.857 547.855 219.771 547.08 198.566ZM493.544 284.265C499.149 277.951 503.985 272.5 507.282 268.28C512.024 262.197 517.146 257.057 522.096 252.08C524.061 250.111 525.985 248.175 527.847 246.229C516.594 235.88 487.003 216.126 468.908 204.056C455.336 195 454.468 194.363 453.943 193.556L457.697 190.678C457.556 190.464 457.432 190.345 457.421 190.339C458.222 191.067 464.581 195.311 471.32 199.808C474.913 202.206 478.953 204.903 483.222 207.769L501.099 171.73L474.788 156.371L476.967 151.976L546.68 192.67C546.67 192.574 546.664 192.484 546.654 192.388C541.948 145.289 522.808 93.6716 516.516 76.7102L518.648 75.7792L516.438 76.4732C511.53 58.0108 502.591 47.0587 482.281 34.6113C473.015 28.9349 465.153 25.9782 458.217 23.377C457.718 23.1852 457.224 22.9989 456.73 22.8184L444.474 45.3941L508.186 85.5069L505.878 89.8234L463.261 62.9932C455.804 79.6387 439.82 120.005 437.969 131.9C437.511 134.806 435.848 140.239 433.518 146.943C453.324 160.694 467.004 170.371 467.431 170.67L464.919 174.851C464.498 174.552 451.187 165.146 431.833 151.699C423.358 175.206 409.147 209.225 408.086 210.489L404.686 207.132C404.644 207.182 404.556 207.273 404.472 207.425C405.528 205.512 419.749 171.612 427.902 148.968C394.884 126.065 346.828 93.2033 313.997 72.7943C309.52 84.4799 293.307 126.596 292.522 128.638L288.279 126.714C294.888 109.544 306.665 78.939 309.972 70.3059C301.845 65.3179 294.815 61.2214 289.402 58.4058C281.301 54.1796 273.558 50.0887 266.346 46.2462C258.224 59.9011 246.79 84.5646 236.557 106.638C234.54 110.994 232.584 115.209 230.728 119.182C232.137 121.156 233.448 123.176 234.623 125.247C244.523 142.7 252.775 151.553 261.62 158.036C269.586 140.29 277.349 119.351 277.469 119.029L281.738 120.886C281.238 122.228 273.543 142.97 265.52 160.733C269.149 163.109 272.929 165.247 277.006 167.555L279.2 168.796C290.541 175.246 330.449 205.828 361.663 230.164C369.353 214.264 380.6 190.926 381.193 189.454C380.829 190.351 381.053 191.705 382.046 192.433L384.604 188.291C385.348 188.827 385.628 189.431 385.628 190.114C385.628 191.022 385.14 192.072 384.557 193.319C384.011 194.475 383.231 196.117 382.29 198.092C380.418 202.019 377.902 207.256 375.385 212.486C370.83 221.949 366.259 231.4 365.433 233.11C380.881 245.179 393.698 255.319 399.018 259.568C406.479 265.52 423.571 278.165 440.756 290.748C448.894 277.246 457.453 263.602 461.914 256.487C463.718 253.609 465.023 251.533 465.273 251.109L469.168 253.761C468.887 254.241 467.852 255.894 465.715 259.297C461.254 266.406 452.69 280.067 444.568 293.536C453.636 300.154 462.527 306.615 469.838 311.919C478.231 301.509 486.514 292.181 493.544 284.265ZM361.975 287.673L320.299 261.531L306.816 284.987L348.003 318.995L361.975 287.673ZM357.732 308.641C359.495 311.264 363.374 316.399 369.509 321.077C376.279 326.234 396.33 337.209 413.712 346.401C417.368 335.691 421.023 325.997 424.299 319.542C427.476 313.279 432.645 304.307 438.25 294.929C420.992 282.301 403.802 269.583 396.288 263.579C393.646 261.469 388.852 257.672 382.644 252.78L357.732 308.641ZM363.987 283.17L378.864 249.806C368.927 241.986 356.214 232.043 343.095 221.898L322.738 257.299L363.987 283.17ZM466.807 315.722C459.6 310.491 450.916 304.189 442.061 297.717C436.529 306.976 431.443 315.807 428.324 321.951C425.121 328.26 421.501 337.909 417.867 348.595C426.238 352.997 433.632 356.8 438.083 359.079C446.226 343.455 456.501 328.807 466.807 315.722ZM435.868 363.469C431.438 361.201 424.341 357.544 416.281 353.313C413.14 362.775 410.026 372.768 407.218 381.813C403.734 393.002 400.729 402.668 398.664 408.073L394.416 406.166C396.418 400.913 399.408 391.321 402.86 380.216C405.731 370.991 408.902 360.783 412.121 351.123C394.515 341.824 373.986 330.585 366.868 325.156C361.564 321.116 357.805 316.766 355.491 313.663L336.954 355.225L332.815 353.053L345.96 323.582L304.372 289.242L300.233 296.436L296.333 293.79L326.409 241.489L288.913 206.94L291.887 203.137L328.868 237.212L339.34 218.998C312.941 198.628 285.825 178.197 277.068 173.22L274.879 171.979C270.896 169.727 267.126 167.589 263.455 165.208C259.644 173.316 255.884 180.324 252.915 183.834C244.747 193.499 228.243 206.353 222.824 210.478C224.832 214.365 226.693 218.326 228.383 222.355C242.152 255.206 267.09 309.927 288.669 349.38L307.336 317.488L311.215 320.163L291.316 354.17C297.274 364.846 302.927 374.213 307.944 381.441C329.95 413.118 377.798 436.145 422.531 451.679C421.86 439.869 421.486 428.353 421.585 417.643C421.772 399.011 427.44 380.696 435.868 363.469ZM393.672 445.997L384.755 473.425L425.204 486.741C424.299 476.878 423.483 466.874 422.859 457.028C413.203 453.704 403.38 450.031 393.672 445.997ZM388.93 589.701C395.596 596.421 401.888 602.763 409.266 607.604C412.34 609.619 415.34 609.957 418.439 608.631C425.417 605.641 431.033 594.943 433.294 586.264C434.329 582.292 433.69 571.267 432.333 556.686C425.469 560.997 408.008 570.121 394.499 561.324C379.701 551.681 375.416 550.536 375.291 550.502L376.149 545.604C376.622 545.7 381.224 546.851 396.87 557.042C409.532 565.297 427.7 553.978 431.807 551.196C431.105 544.092 430.273 536.328 429.415 528.242C428.204 516.923 426.899 504.679 425.708 492.124L383.226 478.131L367.851 525.427L363.514 523.768L371.875 498.043L325.218 475.518L327.085 470.959L373.409 493.321L389.383 444.186C359.302 431.287 330.766 414.85 312.302 394.486C305.282 404.231 298.782 413.259 292.756 421.615L334.291 447.345L332.014 451.679L289.896 425.588C283.37 434.638 277.432 442.876 272.03 450.37C283.786 461.677 300.249 473.493 322.701 482.047L321.178 486.753C298.226 478.012 281.322 465.932 269.185 454.308C261.719 464.668 255.318 473.538 249.832 481.127C255.988 484.829 285.185 502.196 306.982 511.89L305.235 516.511C282.325 506.321 251.428 487.802 246.962 485.105C239.672 495.194 234.15 502.823 229.974 508.589C240.233 518.379 253.175 522.78 267.043 527.492C277.552 531.058 290.671 536.977 304.564 543.246C320.34 550.367 336.662 557.724 350.468 562.227C367.024 567.622 378.162 578.844 388.93 589.701ZM123.868 715.839C128.174 722.379 135.375 733.675 142.889 745.536C144.735 742.658 148.411 737.907 155.743 730.341C168.295 717.391 191.621 680.241 198.573 663.86C203.091 653.219 212.831 625.017 218.878 607.215C206.768 599.993 195.578 592.9 191.34 590.197C187.825 595.016 177.608 609.105 170.266 619.928C168.404 622.664 166.168 625.395 163.584 628.555C156.528 637.188 147.74 647.926 140.128 666.699C139.67 667.827 139.202 668.961 138.729 670.101L162.273 683.638C171.441 665.683 185.121 638.537 185.891 636.003C185.73 636.545 187.029 631.326 187.882 632.093L189.577 634.621C190.186 635.168 190.425 635.761 190.425 636.438C190.425 637.431 189.9 638.582 189.281 639.964C188.662 641.33 187.726 643.299 186.509 645.816C184.461 650.031 181.559 655.871 177.894 663.166C171.654 675.569 165.263 688.073 165.196 688.202L164.104 690.335L136.836 674.66C132.084 685.945 126.686 697.721 120.28 709.3C121.279 711.512 122.454 713.695 123.868 715.839ZM19.8057 755.529L20.3257 755.298C21.1889 754.92 22.0208 754.621 22.8424 754.355C24.0383 754.982 25.2811 755.478 26.4978 756.042L41.1871 762.661L44.8581 764.314C45.1909 765.048 45.5237 765.776 45.8461 766.532C54.488 770.544 64.6223 775.159 72.1255 778.551C74.5486 766.718 79.4988 755.58 88.5359 745.88C99.0498 734.612 107.718 721.973 115.07 708.989C109.449 694.641 110.754 679.377 112.117 663.392C112.34 660.768 112.564 658.128 112.762 655.47C114.191 636.026 126.858 626.507 131.626 622.93C132.24 622.467 132.937 621.948 133.113 621.756C133.061 621.812 133.025 621.863 132.994 621.908L136.732 624.814C136.285 625.491 135.562 626.039 134.242 627.032C129.562 630.547 118.601 638.779 117.348 655.865C117.15 658.545 116.921 661.208 116.698 663.849C115.507 677.775 114.368 691.125 118.107 703.482C125.111 690.397 130.872 677.126 135.916 664.69C143.825 645.201 153.257 633.667 160.147 625.243C162.658 622.173 164.827 619.521 166.563 616.965C175.569 603.7 188.849 585.57 188.985 585.39L190.227 583.691L191.954 584.797C192.203 584.961 205.619 593.571 220.49 602.464C222.632 596.133 224.031 591.952 224.083 591.8L228.409 593.498C228.201 594.119 226.735 598.503 224.577 604.89C236.385 611.865 248.449 618.545 255.099 621C258.869 622.388 265.483 623.37 273.865 624.622C294.971 627.754 327.563 632.607 354.544 650.623L358.917 641.651C358.86 640.382 358.85 639.141 358.845 637.899L361.855 631.382L373.887 605.325C374.875 603.147 375.931 601.003 376.856 598.791C377.751 598.046 378.676 597.324 379.638 596.618L382.597 590.146C373.165 580.74 363.088 571.549 349.142 567.006C335.113 562.43 318.682 555.022 302.797 547.856C289.007 541.632 275.981 535.753 265.67 532.254C251.683 527.497 238.081 522.871 227.125 512.522C217.152 526.262 216.933 526.448 216.803 526.561L215.165 524.298L213.699 522.899C214.146 522.352 217.89 517.211 223.776 509.08C214.016 498.162 206.809 481.635 204.048 454.624C203.377 448.051 203.086 441.72 203.055 435.558C184.502 442.064 153.221 451.871 144.49 454.59C145.676 475.349 149.472 494.585 155.665 508.821C161.639 522.538 165.451 534.398 165.451 545.317C165.445 557.036 161.057 567.661 150.252 578.308C136.972 591.399 124.997 594.858 113.412 598.21C107.848 599.818 102.102 601.477 96.2992 604.213C91.2398 606.6 87.3764 608.914 84.4229 611.656C84.5061 612.333 84.5945 612.982 84.6881 613.608C84.1006 614.105 83.6118 614.731 83.1126 615.34C82.1299 616.576 81.2511 617.919 80.5439 619.358C79.8264 620.791 79.2128 622.286 78.8072 623.855C78.5628 624.628 78.4328 625.44 78.2664 626.236C77.7413 626.467 77.2317 626.721 76.7013 626.992C75.8642 631.489 75.4586 636.917 75.3026 643.688C74.9646 658.054 71.5588 670.536 64.2167 682.938C74.2886 691.825 78.8332 696.627 79.1452 696.96L75.9266 700.52C75.8486 700.441 71.4184 695.763 61.6065 687.091C56.9215 694.144 50.9314 701.242 43.4698 708.707C29.6644 722.515 17.9598 734.234 15.5679 754.265L19.8057 755.529Z" fill="#CACACA"/>
</g>
<mask id="mask24_12_1679" style="mask-type:luminance" maskUnits="userSpaceOnUse" x="0" y="0" width="619" height="832">
<path d="M0.03125 0H618.702V831.703H0.03125V0Z" fill="white"/>
</mask>
<g mask="url(#mask24_12_1679)">
<path d="M0.145508 644.986C1.04506 646.188 1.92382 647.339 2.77658 648.423C9.65064 654.206 17.2631 661.062 25.9518 669.255C37.7033 680.337 48.8099 691.537 59.277 702.845C59.849 702.788 60.4053 702.754 60.9773 702.698C61.7261 702.664 62.4852 702.625 63.2132 702.608C63.5564 702.625 63.6084 702.935 63.6968 703.211C63.7852 703.477 63.9984 703.623 64.1544 703.832L65.1579 704.995L67.1702 707.319L83.2322 725.9L87.2516 730.549C87.1216 731.887 86.9916 733.23 86.794 734.635C105.03 757.256 120.707 780.215 133.717 803.389C148.973 797.301 226.912 764.348 240.847 721.51C246.962 702.726 250.544 682.707 254.059 661.609C246.541 658.799 238.881 656.006 231.274 653.236C202.208 642.656 174.405 632.528 155.399 621.857C153.834 622.461 152.326 622.845 150.766 623.251C150.553 623.302 150.376 623.279 150.236 623.183C150.096 623.082 149.987 622.913 149.857 622.794C149.597 622.557 149.274 622.444 148.983 622.264L147.241 621.192C146.082 620.464 144.906 619.781 143.783 618.985C139.228 615.944 134.892 612.508 130.841 608.778C126.796 605.048 123.041 601.031 119.526 596.98L116.921 593.95L115.642 592.432C115.419 592.189 115.263 591.896 114.977 591.721C114.685 591.551 114.358 591.422 114.332 590.993C114.316 590.101 114.321 589.17 114.332 588.273C114.368 587.562 114.384 586.863 114.42 586.146C99.2786 567.684 91.4946 547.997 85.3381 517.307C80.2892 492.124 79.868 461.164 79.53 436.286C79.4312 428.973 79.3376 422.061 79.1348 416.035C78.828 406.894 77.9441 395.778 76.9197 382.913C76.6909 380.013 76.4517 377.023 76.2126 373.947C44.5513 401.291 14.5436 434.672 0.145508 454.444V438.87C2.55819 435.857 5.25166 432.579 8.22591 429.08C6.19281 428.217 3.52534 427.151 0.145508 425.921V415.392C7.47715 417.959 12.1985 419.985 14.9804 421.294C23.6639 411.459 34.0582 400.388 45.8045 388.883C54.2124 380.651 64.3363 371.216 75.313 361.996C73.9091 342.423 72.6767 320.123 72.7651 295.973C72.7859 288.44 72.7703 281.715 72.5935 275.621L72.3647 275.44C71.7044 274.927 71.1532 274.43 70.55 273.945C69.9781 273.454 69.4165 272.974 68.8237 272.506C68.7405 270.593 68.7561 268.663 68.5585 266.762L68.3297 263.895L67.9814 261.052L67.8046 259.63L67.5706 258.225C67.4042 257.282 67.2742 256.34 67.087 255.409C66.3694 251.679 65.4127 248.006 64.2531 244.463C63.9724 243.565 63.6604 242.696 63.338 241.828C63.1716 241.399 63.026 240.953 62.8492 240.535C62.7504 240.332 62.7192 240.095 62.5424 239.926C62.3552 239.762 62.1213 239.621 62.2616 239.305L64.2219 235.299C58.6634 225.47 49.5431 216.967 34.6354 206.889C25.7906 200.914 16.4259 195.153 6.50479 189.053C4.3885 187.755 2.267 186.446 0.145508 185.137V173.649C3.78013 175.906 7.41475 178.14 11.039 180.369C21.0433 186.519 30.4912 192.331 39.4972 198.42C56.3547 209.812 66.463 219.703 72.6039 231.129C73.9351 231.473 75.1726 231.902 76.3841 232.388C77.1017 234.594 78.0273 236.67 78.6876 238.854C80.0968 243.176 81.2355 247.566 82.0883 252.007C82.3119 253.118 82.473 254.235 82.6654 255.353L82.9462 257.023L83.1594 258.71L83.5702 262.073L83.8406 265.447C84.059 267.699 84.059 269.956 84.1474 272.207C83.4038 273.014 82.5926 273.792 81.7347 274.56C81.9583 281.167 81.9843 288.288 81.9583 296.007C81.8855 317.223 82.8474 337.062 84.0434 354.859C96.5903 344.9 109.902 335.657 122.797 329.027L124.664 328.068C138.464 320.981 151.708 314.176 164.203 307.433C164.317 306.683 164.473 306.006 164.603 305.278C164.785 304.477 164.957 303.664 165.149 302.885C165.258 302.524 165.555 302.547 165.83 302.519C166.106 302.49 166.293 302.298 166.527 302.186L167.868 301.407L170.546 299.85L191.99 287.363L197.351 284.242C198.641 284.75 199.93 285.258 201.277 285.884C215.545 276.727 228.092 267.275 238.429 257.006C244.216 251.262 251.179 243.667 258.536 235.288C246.431 212.859 233.505 191.079 220.162 175.601C217.531 172.543 214.458 168.999 211.057 165.089C184.539 134.552 140.346 83.6731 128.855 59.1281C115.247 63.6985 99.9806 68.7542 83.851 74.0413C83.617 74.6845 83.3726 75.277 83.1386 75.9089C82.8318 76.6538 82.525 77.4099 82.2131 78.1265C82.0467 78.4537 81.7607 78.3634 81.4955 78.3239C81.2355 78.2957 81.0119 78.4368 80.7727 78.4989L79.3636 78.9559L76.5401 79.87L53.9421 87.2053L48.2951 89.0391C47.198 88.283 46.0956 87.5213 44.9673 86.658C30.0284 91.4598 14.9128 96.2672 0.145508 100.9V90.5118C14.0652 86.1332 28.2709 81.6192 42.3154 77.0995C42.825 75.6945 43.3658 74.3967 43.9013 73.099L49.5535 71.2708L72.1464 63.9355L74.9698 63.0158L76.3841 62.5587C76.6129 62.4628 76.8625 62.4515 77.0705 62.271C77.2733 62.0791 77.4657 61.8365 77.7673 62.0114C78.3964 62.4233 79.0308 62.8691 79.6652 63.3092C80.1904 63.7098 80.7051 64.0596 81.2303 64.4715C97.1519 59.2578 112.231 54.2586 125.704 49.7445C121.466 29.1324 134.819 11.1553 141.157 4.00055C140.247 2.65199 139.395 1.32599 138.568 0H149.872C188.589 55.483 292.366 123.12 313.258 136.397C317.387 130.737 323.767 127.104 330.917 127.104C332.82 127.104 334.671 127.363 336.439 127.848C343.37 109.008 368.022 42.6857 386.975 0H397.203C391.951 11.601 386.164 25.3462 380.377 39.5823C394.073 49.1746 447.646 86.5846 488.641 113.691C499.836 92.7293 509.819 75.3391 517.312 64.4264L518.934 62.0509C519.548 61.1594 520.156 60.2735 520.765 59.3876C520.531 57.8698 520.369 56.414 520.213 54.9639L524.425 49.1746L532.838 37.5849L541.257 26.0008L543.363 23.1005L544.418 21.6504C544.574 21.4021 544.803 21.199 544.902 20.8943C544.985 20.5727 545.037 20.2285 545.401 20.1495C546.176 20.031 546.982 19.9351 547.777 19.8335C548.365 19.7883 548.937 19.7263 549.524 19.6811C551.807 16.7583 556.981 12.0186 560.881 8.05753C558.848 5.79488 556.31 3.05261 553.336 0H566.522C570.526 4.43503 572.96 7.43685 573.454 8.06882C582.314 18.4511 581.394 41.1679 579.662 51.7533C578.685 57.7626 580.723 63.8114 584.789 75.8694C587.384 83.5715 590.613 93.1582 594.341 106.469C597.274 116.913 600.477 124.903 603.576 132.628C610.757 150.526 617.537 167.425 617.537 208.35C617.537 208.463 617.537 208.582 617.537 208.7C617.501 248.023 604.772 283.627 579.714 314.52C559.284 339.708 535.938 355.524 521.992 364.976C520.557 365.946 519.236 366.843 518.045 367.662C497.73 381.666 489.769 412.954 498.239 445.512C506.642 477.815 511.665 521.229 512.913 549.927C513.095 554.102 513.381 559.034 513.719 564.738C515.622 597.234 518.498 646.346 508.301 668.848C504.567 677.081 500.486 683.564 496.887 689.28C489.363 701.242 483.924 709.887 486.051 727.074C486.992 734.669 486.779 741.208 486.592 746.975C486.072 762.808 485.786 771.52 509.663 784.887C535.282 799.23 556.18 820.249 566.528 831.703H553.336C542.281 820.367 525.169 804.8 505.441 793.757C476.385 777.49 476.853 763.18 477.399 746.625C477.581 740.983 477.773 735.154 476.936 728.405C476.567 725.426 476.395 722.656 476.385 720.043C472.272 724.805 468.216 729.551 464.254 734.24C464.181 734.81 464.108 735.374 464.046 735.949C463.895 736.965 463.76 737.986 463.599 738.968C463.5 739.437 463.125 739.6 462.782 739.803C462.439 740.012 462.221 740.351 461.94 740.621L460.344 742.354L457.193 745.852C453.012 750.552 448.972 755.405 445.051 760.359C443.075 762.819 441.193 765.358 439.279 767.869L436.492 771.706L435.104 773.625L431.079 779.482L429.79 781.468C429.592 781.812 429.327 782.105 429.176 782.489C429.104 782.681 429.067 782.895 428.974 783.07C428.88 783.251 428.719 783.375 428.5 783.454C427.128 783.928 425.755 784.419 424.346 784.893C415.262 797.639 407.863 809.393 402.834 819.685C401.051 823.33 399.163 827.37 397.203 831.703H386.975C389.695 825.581 392.295 819.944 394.707 815.007C396.922 810.482 399.569 805.691 402.59 800.686C394.068 786.371 352.984 718.909 321.62 693.788C309.275 683.908 287.281 674.299 262.852 664.933C259.353 685.878 255.718 705.796 249.52 724.834C234.519 770.939 157.953 804.303 138.49 812.129C139.592 814.2 140.679 816.271 141.735 818.342C143.955 822.686 146.69 827.155 149.867 831.703H138.552C136.732 828.792 135.1 825.948 133.691 823.177C119.672 795.704 101.79 768.456 80.2424 741.66C78.7916 741.806 77.4293 741.874 76.0722 741.93L72.0528 737.287L55.9908 718.7L53.9785 716.375L52.9749 715.213C52.7929 715.033 52.6733 714.796 52.4341 714.677C52.1845 714.564 51.8986 714.491 51.909 714.113C51.9662 713.329 52.0545 712.51 52.1377 711.703C52.2365 710.97 52.3093 710.27 52.4289 709.525C42.2114 698.517 31.3804 687.593 19.9201 676.788C13.2177 670.468 7.20156 664.978 1.69503 660.187C1.18026 659.905 0.665482 659.651 0.145508 659.392V644.986ZM308.386 151.553C308.386 149.409 308.641 147.326 309.125 145.346C308.288 144.816 307.31 144.189 306.156 143.45C302.516 141.125 296.645 137.322 289.314 132.425C276.496 123.854 256.846 110.328 236.001 94.5293C194.772 63.2866 164.941 35.6326 146.903 11.9847C140.726 19.3539 128.959 36.6144 136.758 53.9651C147.033 76.8287 193.035 129.789 217.75 158.245C221.161 162.166 224.244 165.715 226.886 168.779C240.301 184.353 253.129 205.681 265.114 227.727C285.253 204.327 306.598 177.582 314.226 167.956C310.596 163.616 308.386 157.855 308.386 151.553ZM269.95 236.744C274.411 245.145 278.748 253.553 282.939 261.695C285.299 266.271 287.603 270.734 289.834 275.017C306.39 306.796 341.358 359.565 363.977 380.532C371.163 364.773 377.408 350.486 381.973 338.935C390.251 317.99 408.918 276.196 430.346 230.847C397.879 206.861 357.883 177.858 346.256 169.44C342.226 173.508 336.839 176.002 330.917 176.002C327.631 176.002 324.505 175.223 321.692 173.846C314.2 183.32 291.274 212.114 269.95 236.744ZM330.917 137.085C325.811 137.085 321.375 140.211 319.134 144.793C319.134 144.793 317.585 150.182 317.585 151.553C317.585 159.531 323.564 166.02 330.917 166.02C338.269 166.02 344.249 159.531 344.249 151.553C344.249 143.574 338.269 137.085 330.917 137.085ZM376.643 48.8474C362.552 84.0455 349.23 119.988 344.722 132.255C350.026 136.73 353.447 143.71 353.447 151.553C353.447 155.012 352.777 158.307 351.575 161.292C363.368 169.834 402.45 198.166 434.584 221.904C450.87 187.659 468.419 152.066 484.044 122.353C443.975 95.8835 392.341 59.8447 376.643 48.8474ZM554.755 317.72C556.565 319.232 558.338 320.71 560.095 322.183C584.711 297.446 608.292 260.961 608.339 208.683C608.339 208.57 608.339 208.458 608.339 208.339C608.339 169.513 602.224 154.261 595.142 136.617C591.939 128.627 588.626 120.366 585.543 109.369C581.888 96.3236 578.705 86.8837 576.147 79.2945C571.67 65.9894 569.2 58.6654 570.609 50.0097C572.637 37.6187 571.701 20.6347 566.673 14.8116L566.548 14.6536C566.528 14.6367 566.403 14.4731 566.169 14.1853C562.961 18.1182 558.998 23.0159 556.955 25.6171C557.095 26.4296 557.178 27.1913 557.298 27.9757C557.397 28.8446 557.496 29.7136 557.574 30.5599C557.589 30.9662 557.288 31.096 557.022 31.2653C556.768 31.4402 556.643 31.7223 556.45 31.9536L555.4 33.3981L553.299 36.2984L544.876 47.8825L532.251 65.2671C530.826 65.4477 529.396 65.6339 527.878 65.7355C527.353 66.4916 526.833 67.2533 526.318 68.0094L524.685 70.3849C517.489 80.8687 507.651 98.0107 496.513 118.871C513.043 129.682 526.713 138.208 533.556 141.565C535.589 142.564 537.773 143.348 540.092 143.963C540.108 144.065 540.128 144.172 540.149 144.274C540.56 146.063 541.226 147.721 541.891 149.414C542.229 150.272 542.572 151.13 542.853 152.015C542.952 152.331 543.04 152.653 543.124 152.98C543.134 153.076 543.165 153.291 543.217 153.652C543.264 154.064 543.342 154.453 543.441 154.82C538.527 154.047 533.951 152.709 529.771 150.661C522.631 147.157 508.691 138.479 491.922 127.527C476.328 157.173 458.643 192.952 442.186 227.524C450.636 233.793 458.362 239.57 464.644 244.338C477.908 254.416 497.569 270.356 518.118 287.295C518.778 287.154 519.407 287.052 520.057 286.917C520.843 286.798 521.638 286.669 522.413 286.567C522.782 286.545 522.902 286.866 523.058 287.143C523.219 287.419 523.479 287.549 523.692 287.746L527.685 291.064L548.978 308.748L554.303 313.166C554.475 314.65 554.646 316.145 554.755 317.72ZM513.116 359.237C514.322 358.402 515.664 357.499 517.12 356.506C526.256 350.316 539.499 341.339 553.071 328.909C551.786 327.837 550.492 326.753 549.181 325.659C547.741 325.958 546.358 326.172 544.985 326.375L539.66 321.957L518.368 304.273L514.374 300.956C514.145 300.792 513.958 300.549 513.677 300.453C513.386 300.363 513.069 300.318 512.991 299.923C512.877 299.088 512.783 298.225 512.689 297.367C512.632 296.639 512.559 295.945 512.518 295.206C492.062 278.352 472.521 262.507 459.371 252.52C453.345 247.938 445.997 242.443 437.943 236.467C417.446 279.836 399.361 320.259 390.423 342.874C385.639 354.983 379.046 370.02 371.475 386.587C371.782 386.784 372.088 386.976 372.385 387.162C383.783 394.114 411.58 407.836 443.678 421.542C444.224 421.141 444.744 420.803 445.28 420.419C445.904 420.019 446.533 419.601 447.147 419.223C447.443 419.065 447.599 419.313 447.776 419.511C447.953 419.703 448.192 419.725 448.4 419.827L452.232 421.378L462.455 425.514L472.683 429.656L477.789 431.721C478.2 433.053 478.605 434.39 478.969 435.835C481.782 436.907 484.59 437.956 487.387 438.989C481.517 405.523 491.334 374.246 513.116 359.237ZM327.079 685.759C357.987 710.513 396.194 771.763 408.221 791.748C410.691 787.962 413.343 784.08 416.156 780.108C416.068 779.098 416.026 778.116 415.964 777.112C415.933 776.051 415.933 775.007 415.922 773.946C415.927 773.681 415.985 773.467 416.12 773.303C416.245 773.139 416.432 773.015 416.577 772.863C416.874 772.558 417.056 772.174 417.295 771.83L418.673 769.714L421.517 765.573L422.942 763.502L424.408 761.476L427.346 757.431C429.358 754.784 431.345 752.11 433.419 749.525C437.532 744.323 441.77 739.245 446.154 734.319L449.461 730.64L451.135 728.823C451.405 728.507 451.728 728.253 451.941 727.869C452.144 727.486 452.305 727.057 452.768 726.95C453.714 726.769 454.681 726.622 455.638 726.47C456.631 726.352 457.598 726.216 458.617 726.148C458.622 726.148 458.622 726.148 458.628 726.148C465.372 718.164 472.365 710.078 479.489 701.948C481.907 695.402 485.474 689.726 489.296 683.654C492.889 677.944 496.601 672.036 500.044 664.442C509.164 644.326 506.268 594.903 504.536 565.37C504.198 559.62 503.912 554.655 503.725 550.395C502.529 522.91 497.813 481.714 489.946 450.415C485.209 448.711 480.451 446.956 475.678 445.133C474.575 445.929 473.504 446.617 472.438 447.306L467.327 445.241L446.871 436.963L444.318 435.931L443.039 435.417C442.82 435.344 442.633 435.197 442.384 435.214C442.129 435.236 441.864 435.315 441.734 434.983C441.495 434.26 441.271 433.499 441.042 432.748C440.881 432.122 440.704 431.535 440.543 430.897C407.842 416.943 379.488 402.944 367.882 395.857C367.71 395.756 367.533 395.643 367.362 395.53C355.2 421.824 341.041 451.154 327.885 478.43C314.532 506.095 301.829 532.412 292.506 552.81C292.792 554.559 293.047 556.274 293.265 557.945C291.695 560.839 290.463 563.931 289.126 566.961C286.537 573.067 284.202 579.29 282.122 585.582C280.001 591.867 278.337 598.272 276.886 604.687L275.909 609.512C275.727 610.313 275.633 611.12 275.498 611.927C275.456 612.333 275.337 612.728 275.352 613.145C275.363 613.354 275.415 613.569 275.399 613.777C275.389 613.981 275.295 614.167 275.124 614.347C273.756 615.735 272.446 617.163 271.057 618.63C268.53 630.784 266.492 642.955 264.5 654.985C290.187 664.797 313.586 674.954 327.079 685.759ZM262.098 616.345C261.812 615.792 261.531 615.233 261.271 614.675C260.829 613.687 260.419 612.694 259.997 611.684C259.899 611.436 259.867 611.193 259.919 610.973C259.971 610.742 260.096 610.533 260.169 610.313C260.315 609.873 260.33 609.41 260.419 608.959C260.564 608.05 260.679 607.136 260.876 606.245L261.963 600.879C263.559 593.786 265.4 586.784 267.683 580.001C269.929 573.202 272.435 566.532 275.202 559.998C275.914 558.379 276.6 556.737 277.328 555.123L278.431 552.708C278.597 552.296 278.841 551.924 278.93 551.467C279.023 551.016 279.075 550.536 279.481 550.254C280.344 549.723 281.238 549.216 282.122 548.708C282.986 548.262 283.828 547.799 284.722 547.387C294.051 527.029 306.582 501.068 319.737 473.798C333.111 446.081 347.509 416.238 359.77 389.69C334.432 367.244 297.02 309.086 281.826 279.932C279.585 275.632 277.281 271.157 274.916 266.564C271.167 259.291 267.298 251.798 263.341 244.293C256.55 251.962 250.118 258.93 244.643 264.369C233.65 275.288 220.427 285.23 205.447 294.811C205.192 296.233 204.896 297.57 204.594 298.902L199.238 302.022L177.795 314.503L175.112 316.066L173.775 316.845C173.557 316.992 173.307 317.065 173.131 317.285C172.959 317.522 172.808 317.804 172.475 317.703C171.773 317.449 171.051 317.155 170.338 316.873C169.782 316.619 169.246 316.41 168.69 316.157C156.008 323.007 142.587 329.902 128.6 337.09L126.733 338.05C113.542 344.826 99.1746 354.955 84.8857 366.657C85.2861 372.018 85.6969 377.164 86.0869 382.056C87.1164 395.056 88.0108 406.285 88.328 415.674C88.5307 421.807 88.6295 428.77 88.7283 436.145C89.0559 460.571 89.4667 490.973 94.3233 515.185C100.121 544.064 107.146 562.199 121.092 579.29C121.84 579.324 122.568 579.386 123.312 579.431C124.154 579.522 124.991 579.589 125.808 579.697C126.198 579.764 126.286 580.131 126.406 580.458C126.541 580.78 126.796 580.983 126.988 581.243L128.215 582.698L130.669 585.565C133.945 589.334 137.263 592.872 140.767 596.099C144.267 599.327 147.953 602.244 151.832 604.823C152.779 605.505 153.793 606.087 154.775 606.707L156.257 607.621C156.523 607.746 156.751 607.943 157.043 608.005C157.188 608.039 157.355 608.028 157.49 608.078C157.625 608.129 157.724 608.265 157.786 608.462L159.065 612.66C177.634 623.172 206.289 633.611 234.196 643.773C241.372 646.386 248.589 649.015 255.702 651.667C257.642 639.981 259.644 628.172 262.098 616.345Z" fill="#CACACA"/>
</g>
</g>
</g>
<ellipse cx="281.5" cy="400" rx="59.5" ry="58" fill="black" fill-opacity="0.21"/>
<path d="M266.639 341.829C251.436 353.085 259.352 367.772 267.212 381.116C271.071 387.663 275.144 394.09 279.405 400.387C281.269 397.527 299.868 371.918 300.54 360.559C301.545 343.564 280.613 331.486 266.639 341.829ZM279.373 371.387C273.066 371.387 267.951 366.272 267.951 359.965C267.951 353.657 273.066 348.543 279.373 348.543C285.675 348.543 290.79 353.657 290.79 359.965C290.79 366.272 285.681 371.387 279.373 371.387Z" fill="#FF3131"/>
</svg>
