<svg width="87" height="79" viewBox="0 0 87 79" fill="none" xmlns="http://www.w3.org/2000/svg">
<path d="M84.7761 0.954172C83.8327 0.325875 82.7017 0.00123438 81.5598 0.00123438C81.012 0.00123438 80.4601 0.0765313 79.9258 0.229594L55.7792 7.1532L32.9839 0.253047C32.4265 0.0839375 31.8461 0 31.2643 0C30.6281 0 29.9905 0.101219 29.3856 0.304891L3.55748 8.94552C1.42055 9.66022 0 11.5093 0 13.5781V74.0625C0 75.6351 0.825141 77.1151 2.22394 78.0458C3.16734 78.6729 4.29563 79 5.4375 79C5.98669 79 6.53995 78.9235 7.07419 78.7704L31.2656 71.8332L55.4571 78.7704C55.9899 78.9235 56.5405 79 57.0924 79C57.6742 79 58.2547 78.9161 58.8134 78.7469L83.2821 71.3407C85.502 70.668 87 68.7818 87 66.6562V4.9375C87 3.36491 86.1749 1.88489 84.7761 0.954172ZM80.7414 2.58478C81.0065 2.50825 81.2825 2.46998 81.5611 2.46998C82.1389 2.46998 82.7098 2.63909 83.1706 2.94645C83.8653 3.40934 84.2812 4.15367 84.2812 4.9375V35.903C83.9632 35.8586 83.6328 35.8006 83.2862 35.7401C81.6998 35.4525 80.7047 35.097 79.5071 33.8318C78.0934 32.3653 78.9158 29.9928 77.358 28.7535C76.7571 28.2869 76.1807 28.1314 75.5989 28.1314C74.4788 28.1302 73.3396 28.7091 71.9626 28.7535C69.6979 28.8449 68.14 29.6867 66.2614 29.6867C65.6809 29.6867 65.0692 29.6077 64.3963 29.3991C62.572 28.8313 61.8733 27.534 60.0762 26.8551C59.4971 26.6329 58.9683 26.4959 58.4545 26.3934V18.7502C59.9851 19.2451 61.35 19.7043 63.3143 19.8759C64.3895 19.9734 65.2582 20.345 66.1282 20.345C66.6175 20.345 67.1083 20.2265 67.6343 19.8759C69.2642 18.7724 70.6644 16.7628 69.7985 14.8051C69.2357 13.5152 67.8804 14.0003 67.0865 12.898C66.2355 11.6834 66.6393 10.5737 66.0194 9.09858C66.4055 8.01727 67.0634 7.25689 67.4277 6.40147L80.7414 2.58478ZM63.4787 9.97869C63.6296 10.3404 63.6772 10.7033 63.7357 11.1625C63.839 11.9648 63.9817 13.0659 64.7905 14.2225C65.6102 15.3593 66.6882 15.784 67.3353 16.0098C67.3557 16.6628 66.6556 17.4454 66.0466 17.87C65.8821 17.8491 65.5858 17.7824 65.3601 17.7306C64.8789 17.6195 64.2808 17.4837 63.5807 17.4195C62.012 17.2825 60.9163 16.9282 59.5311 16.4777C59.1967 16.369 58.8242 16.253 58.4518 16.1382V8.97514L63.8376 7.43094C63.6962 7.71361 63.5508 8.00122 63.4312 8.33697C63.2408 8.87269 63.2572 9.45284 63.4787 9.97869ZM55.7344 26.186C54.9962 26.1996 54.2377 26.2354 53.384 26.2354C53.1067 26.2354 52.8212 26.2305 52.5222 26.2194C52.3618 26.2132 52.2054 26.2107 52.0505 26.2107C50.5456 26.2107 49.3942 26.4736 48.1069 26.4736C47.4721 26.4736 46.806 26.4095 46.0448 26.2194C44.2912 25.7775 42.8353 25.9873 41.7233 24.3283C40.4333 22.3595 40.4985 19.9858 41.7233 17.9688C43.0065 15.8827 44.9409 16.3567 47.1268 16.0691C47.5292 16.0197 47.9085 15.9963 48.2728 15.9963C50.9874 15.9963 52.7777 17.264 55.733 17.9614L55.7344 26.186ZM42.7428 54.5804C42.0224 56.1727 40.6915 56.5048 39.2003 56.5048C38.9447 56.5048 38.6851 56.4949 38.4227 56.4801C36.8214 56.3949 36.1009 55.3605 34.6437 54.5804C33.2558 53.8373 32.2974 52.8201 31.267 52.019V35.9968C32.2824 37.2423 32.6807 38.5113 34.0958 39.3432C34.645 39.6666 35.1684 39.7802 35.6795 39.7802C36.9043 39.7802 38.0639 39.1272 39.358 39.1272C39.7508 39.1272 40.1573 39.1877 40.5801 39.3445C42.751 40.1666 44.597 40.6751 45.433 43.1686C45.9809 44.7733 45.9958 46.0027 45.433 47.5963C44.8784 49.2071 43.254 49.122 42.7428 50.7674C42.2874 52.1721 43.3274 53.2571 42.7428 54.5804ZM2.71875 23.6457C3.9082 23.637 5.05959 23.5642 6.57802 23.4939C8.47434 23.3988 9.83372 22.4866 11.3888 22.4866C11.9108 22.4866 12.4546 22.5891 13.0486 22.8594C14.8661 23.6642 15.2046 25.4183 16.8345 26.6576C19.295 28.5313 21.2484 28.2524 23.853 29.8385C25.7941 31.0223 27.1399 32.0086 28.5469 33.2775V50.818C28.4177 50.8019 28.3022 50.7698 28.1662 50.7649C27.6606 50.7513 27.2011 50.697 26.7729 50.697C26.1136 50.697 25.5209 50.8229 24.9282 51.408C23.9046 52.4091 24.7855 54.1064 23.8543 55.2074C23.1773 56.0246 22.4175 56.2789 21.5896 56.2789C20.7848 56.2789 19.9162 56.0406 18.9932 55.8431C17.139 55.4592 16.5259 53.7138 14.6799 53.3065C13.988 53.1559 13.4347 53.0349 12.8733 53.0349C12.426 53.0349 11.9747 53.1115 11.4405 53.3065C9.14588 54.1545 8.76389 56.5023 7.65328 59.0216C6.74522 61.1077 7.64648 63.3284 6.03834 64.7195C5.2567 65.3972 4.50769 65.6058 3.6975 65.6058C3.38348 65.6058 3.05723 65.5737 2.72011 65.5268L2.71875 23.6457ZM4.49817 11.2624L28.5469 3.21678V29.9336C27.5926 29.2078 26.5839 28.5301 25.3687 27.7895C23.8978 26.8933 22.6241 26.486 21.5012 26.1255C20.3648 25.7626 19.5451 25.4997 18.5813 24.7653C18.1735 24.4554 17.8527 24.016 17.4788 23.505C16.7896 22.5619 15.9319 21.388 14.2395 20.6388C13.3409 20.2302 12.373 20.0166 11.3875 20.0166C10.1613 20.0166 9.14044 20.3339 8.24189 20.6141C7.57852 20.8202 7.00486 20.9992 6.42713 21.0276L5.33147 21.0831C4.33369 21.1325 3.53166 21.172 2.71875 21.1769V13.5781C2.71875 12.5487 3.43242 11.6179 4.49817 11.2624ZM6.2572 76.4165C5.99077 76.493 5.71481 76.5312 5.4375 76.5312C4.85569 76.5312 4.2997 76.3658 3.83072 76.0535C3.13472 75.5907 2.71875 74.8463 2.71875 74.0625V68.0091C3.0382 68.0437 3.36038 68.077 3.69614 68.077C5.31516 68.077 6.69628 67.5635 7.91428 66.5081C9.62166 65.0331 9.75895 63.1543 9.86227 61.7842C9.91256 61.0917 9.9615 60.4387 10.1817 59.9326C10.4264 59.3784 10.6412 58.8229 10.8465 58.2872C11.5017 56.5899 11.8524 55.8234 12.4641 55.5963C12.7061 55.5074 12.8135 55.5074 12.8719 55.5074C13.1166 55.5074 13.5462 55.6012 14.0423 55.7098C14.2422 55.7542 14.5807 56.048 14.9382 56.3591C15.6913 57.0121 16.7217 57.9082 18.3869 58.2526L18.8804 58.3612C19.6919 58.5427 20.6108 58.7488 21.5869 58.7488C23.3745 58.7488 24.9092 58.0378 26.0252 56.6924C26.9958 55.5432 27.0393 54.2545 27.0706 53.4015C27.0733 53.3349 27.076 53.2571 27.0788 53.1781C27.1549 53.1818 27.231 53.188 27.3098 53.1929C27.5586 53.2102 27.8155 53.225 28.0847 53.2324C28.2451 53.2386 28.396 53.2658 28.5469 53.3164V70.0236L6.2572 76.4165ZM32.0853 69.4793L31.2656 69.2447V55.3617C31.8393 55.8221 32.4809 56.2887 33.2639 56.7084C33.5902 56.8837 33.9015 57.1034 34.2291 57.338C35.1208 57.9737 36.3429 58.8427 38.2637 58.9451C38.575 58.9636 38.8904 58.9735 39.2003 58.9735C42.1814 58.9735 44.2191 57.812 45.2577 55.5197C45.8667 54.1409 45.6152 52.9559 45.448 52.1721C45.3868 51.8882 45.3188 51.5648 45.3528 51.4611L45.3759 51.3969C45.4167 51.3475 45.6261 51.1994 45.777 51.0895C46.424 50.6279 47.5047 49.8539 48.0294 48.332C48.7445 46.3014 48.7472 44.5338 48.0308 42.4353C46.8848 39.0223 44.2313 38.0348 42.0985 37.2411L41.6268 37.0646C40.8914 36.7918 40.1342 36.6572 39.358 36.6572C38.3072 36.6572 37.41 36.8992 36.6922 37.0942C36.2967 37.2016 35.8875 37.3115 35.6795 37.3115C35.6523 37.3102 35.6279 37.3028 35.5735 37.272C35.182 37.0411 34.9264 36.6646 34.4724 35.9635C34.0931 35.376 33.6201 34.6477 32.9145 33.9182C32.3246 33.3096 31.7863 32.7739 31.2656 32.2777V2.46875C31.5592 2.46875 31.8474 2.51072 32.1247 2.59589L54.9188 9.49481L55.7344 9.74169V15.3766C55.0493 15.1791 54.4035 14.9606 53.747 14.7224C52.1388 14.1348 50.475 13.5275 48.2741 13.5275C47.7793 13.5275 47.2695 13.5584 46.7598 13.6226C46.3615 13.6744 45.9618 13.6979 45.5391 13.7201C43.761 13.8176 41.0749 13.9657 39.3525 16.764C37.6193 19.6192 37.6357 22.9137 39.3892 25.5911C40.8791 27.8166 42.9644 28.1709 44.3455 28.4067C44.6895 28.4647 45.0143 28.5202 45.3202 28.5968C46.2459 28.8288 47.1581 28.9412 48.1096 28.9412C48.8831 28.9412 49.5696 28.8696 50.233 28.8017C50.8461 28.7387 51.4252 28.6782 52.0532 28.6782C52.1701 28.6782 52.2911 28.6807 52.4134 28.6844C52.7519 28.698 53.0741 28.7029 53.3867 28.7029C53.9522 28.7029 54.4797 28.6856 54.9867 28.6708C55.2436 28.6622 55.4883 28.6585 55.7371 28.6535V76.2597L32.0853 69.4793ZM82.4216 68.9979L58.4531 76.2523V28.9449C58.638 28.9992 58.8215 29.0547 59.0213 29.13C59.5026 29.3115 59.875 29.5966 60.3902 29.9916C61.1433 30.5681 62.0799 31.2865 63.5141 31.7321C64.4344 32.016 65.3302 32.1542 66.2614 32.1542C67.5596 32.1542 68.6811 31.8802 69.6707 31.6383C70.4822 31.4395 71.2476 31.2531 72.0836 31.2186C73.08 31.1865 73.9405 30.9692 74.6324 30.7952C74.9709 30.7113 75.3515 30.615 75.5513 30.6002C75.6574 30.7754 75.7552 31.3309 75.8205 31.7025C76.0095 32.7628 76.2664 34.2169 77.4613 35.4574C79.117 37.2065 80.717 37.7904 82.7533 38.1595L82.8947 38.1854C83.3446 38.2619 83.8082 38.331 84.2826 38.3829V66.6562C84.2812 67.7203 83.5336 68.6621 82.4216 68.9979Z" fill="#6777E0" fill-opacity="0.2"/>
<path d="M75.1816 48.5381C74.26 48.2813 73.39 48.0394 72.4493 48.0394C71.563 48.0394 70.7623 48.2579 69.997 48.7097C69.1378 49.2244 68.8904 49.8601 68.8333 50.3008C68.6825 51.492 69.6544 52.4276 70.6835 53.4176C71.3713 54.0792 72.4099 55.079 72.2087 55.5543C72.0782 55.8703 71.684 56.0431 70.8778 56.3356C69.876 56.701 68.3589 57.2503 68.0313 58.892C67.8464 59.803 68.0748 60.6399 68.6906 61.3114C69.5565 62.2532 71.1253 62.7717 73.1127 62.7717C75.1381 62.7717 77.1296 62.2409 78.4523 61.3447C80.6993 59.7795 81.5612 57.4935 81.0133 54.552C80.4669 51.5512 78.4795 49.4799 75.1816 48.5381ZM76.8115 59.3771C75.9823 59.94 74.5291 60.3042 73.1127 60.3042C71.8634 60.3042 71.0423 60.0178 70.7786 59.7314C70.7324 59.6808 70.6522 59.5944 70.7038 59.3364C70.7541 59.0908 70.9635 58.9649 71.8865 58.6303C72.8585 58.2773 74.1893 57.7934 74.7507 56.4307C75.5568 54.5137 73.8821 52.9028 72.6586 51.7252C72.3351 51.4142 71.8838 50.9797 71.6595 50.6847C72.3732 50.3428 73.1874 50.5662 74.4516 50.9192C76.6837 51.5574 77.952 52.8769 78.3313 54.9605C78.7146 57.0158 78.2416 58.381 76.8115 59.3771Z" fill="#6777E0" fill-opacity="0.2"/>
</svg>
