<svg width="40" height="40" viewBox="0 0 40 40" fill="none" xmlns="http://www.w3.org/2000/svg">
<rect width="40" height="40" rx="10" fill="url(#paint0_linear_169_896)"/>
<rect width="40" height="40" rx="10" fill="black" fill-opacity="0.2"/>
<path d="M29.625 31H31M25.5 31H22.75V26.875M26.875 26.875H31V22.75H29.625M22.75 22.75H25.5M9 26.8746C9 25.5934 9 24.9526 9.20933 24.4473C9.48844 23.7734 10.0234 23.2384 10.6973 22.9593C11.2026 22.75 11.8433 22.75 13.1246 22.75C14.406 22.75 15.0474 22.75 15.5527 22.9593C16.2266 23.2384 16.7614 23.7734 17.0405 24.4473C17.2499 24.9526 17.2499 25.5936 17.2499 26.875C17.2499 28.1564 17.2499 28.797 17.0405 29.3024C16.7614 29.9762 16.2266 30.5115 15.5527 30.7906C15.0474 30.9999 14.406 30.9999 13.1246 30.9999C11.8433 30.9999 11.2026 30.9999 10.6973 30.7906C10.0234 30.5115 9.48844 29.9766 9.20933 29.3027C9 28.7974 9 28.156 9 26.8746ZM22.75 13.1246C22.75 11.8433 22.75 11.2026 22.9593 10.6973C23.2384 10.0234 23.7734 9.48844 24.4473 9.20933C24.9526 9 25.5934 9 26.8746 9C28.156 9 28.7974 9 29.3027 9.20933C29.9766 9.48844 30.5115 10.0234 30.7906 10.6973C30.9999 11.2026 30.9999 11.8437 30.9999 13.125C30.9999 14.4063 30.9999 15.047 30.7906 15.5524C30.5115 16.2262 29.9766 16.7614 29.3027 17.0405C28.7974 17.2499 28.156 17.2499 26.8746 17.2499C25.5934 17.2499 24.9526 17.2499 24.4473 17.0405C23.7734 16.7614 23.2384 16.2266 22.9593 15.5527C22.75 15.0474 22.75 14.406 22.75 13.1246ZM9 13.1246C9 11.8433 9 11.2026 9.20933 10.6973C9.48844 10.0234 10.0234 9.48844 10.6973 9.20933C11.2026 9 11.8433 9 13.1246 9C14.406 9 15.0474 9 15.5527 9.20933C16.2266 9.48844 16.7614 10.0234 17.0405 10.6973C17.2499 11.2026 17.2499 11.8437 17.2499 13.125C17.2499 14.4063 17.2499 15.047 17.0405 15.5524C16.7614 16.2262 16.2266 16.7614 15.5527 17.0405C15.0474 17.2499 14.406 17.2499 13.1246 17.2499C11.8433 17.2499 11.2026 17.2499 10.6973 17.0405C10.0234 16.7614 9.48844 16.2266 9.20933 15.5527C9 15.0474 9 14.406 9 13.1246Z" stroke="white" stroke-width="3" stroke-linecap="round" stroke-linejoin="round"/>
<defs>
<linearGradient id="paint0_linear_169_896" x1="3.45582" y1="28.0857" x2="32.3714" y2="14.5391" gradientUnits="userSpaceOnUse">
<stop stop-color="#004EEC"/>
<stop offset="1" stop-color="#7CA8FF"/>
</linearGradient>
</defs>
</svg>
